<?xml version="1.0" encoding="utf-8"?>
<!-- Generator: Adobe Illustrator 21.1.0, SVG Export Plug-In . SVG Version: 6.00 Build 0)  -->
<svg version="1.1"
	 id="svg2" inkscape:output_extension="org.inkscape.output.svg.inkscape" inkscape:version="0.47 r22583" sodipodi:docname="Wi-Fi_Logo.svg" sodipodi:version="0.32" xmlns:cc="http://creativecommons.org/ns#" xmlns:dc="http://purl.org/dc/elements/1.1/" xmlns:inkscape="http://www.inkscape.org/namespaces/inkscape" xmlns:rdf="http://www.w3.org/1999/02/22-rdf-syntax-ns#" xmlns:sodipodi="http://sodipodi.sourceforge.net/DTD/sodipodi-0.dtd" xmlns:svg="http://www.w3.org/2000/svg"
	 xmlns="http://www.w3.org/2000/svg" xmlns:xlink="http://www.w3.org/1999/xlink" x="0px" y="0px" viewBox="0 0 304 195"
	 style="enable-background:new 0 0 304 195;" xml:space="preserve">
<style type="text/css">
	.st0{fill:#FFFFFF;}
</style>
<defs>
	
	
		<inkscape:perspective  id="perspective10" inkscape:persp3d-origin="2065.0629 : 247.75183 : 1" inkscape:vp_x="1693.0157 : 423.14553 : 1" inkscape:vp_y="6.1230318e-14 : 1000 : 0" inkscape:vp_z="2437.1101 : 423.14553 : 1" sodipodi:type="inkscape:persp3d">
		</inkscape:perspective>
	
		<inkscape:perspective  id="perspective2447" inkscape:persp3d-origin="372.04724 : 350.78739 : 1" inkscape:vp_x="0 : 526.18109 : 1" inkscape:vp_y="0 : 1000 : 0" inkscape:vp_z="744.09448 : 526.18109 : 1" sodipodi:type="inkscape:persp3d">
		</inkscape:perspective>
</defs>
<sodipodi:namedview  bordercolor="#666666" borderopacity="1.0" gridtolerance="10000" guidetolerance="10" id="base" inkscape:current-layer="layer1" inkscape:cx="93.448753" inkscape:cy="208.87932" inkscape:document-units="px" inkscape:pageopacity="0.0" inkscape:pageshadow="2" inkscape:window-height="514" inkscape:window-maximized="1" inkscape:window-width="1024" inkscape:window-x="-8" inkscape:window-y="-8" inkscape:zoom="1.9542857" objecttolerance="10" pagecolor="#ffffff" showgrid="false">
	</sodipodi:namedview>
<g id="layer1" transform="translate(-145.14287,-334.86218)" inkscape:groupmode="layer" inkscape:label="Layer 1">
	
		<path id="path3281" sodipodi:nodetypes="cccccccccccccccccccccccccsccsccssccsccsccscccccccccccccccccccccsssccccscccccsccccccccssscccccccccccc" d="
		M145.1,450.3v-34.9c0,0-0.4-15,14.6-30.1c15-15,29.3-13.4,29.3-13.4h19.7c0,0,24.7-37.1,73.7-37.1s77,36.6,77,36.6h22.2
		c0,0,5.6-0.3,12.7,3.3c7.1,3.6,13.5,7.7,20.1,17.8c6.5,10.2,7.4,17.5,7.4,22.8v38.1c0,8-0.8,14.1-14.1,27.5S377.2,493,377.2,493
		h-20.5c0,0-25.5,36.8-73.5,36.8c-47.9,0-72.5-36.6-72.5-36.6h-22.7c0,0-15,0.9-29.5-13.6S145.4,450.3,145.1,450.3z M169.3,400.2
		l14.1,61h15.5l6.9-35.1l6.7,35.1h15.9l14.1-60.6h-16.9l-4.9,33.2l-6.9-33.3h-15.3l-6.9,33.7l-5.2-33.8L169.3,400.2z M250.6,417.2
		v43.9h14.9v-43.9H250.6z M267.8,404.9c0,4.2-4.2,7.7-9.4,7.7c-5.2,0-9.4-3.4-9.4-7.7s4.2-7.7,9.4-7.7
		C263.6,397.2,267.8,400.6,267.8,404.9z M271.4,484.4c0,0,18.6-14.1,18.6-35.2v-35.5c0-5.7,2.9-13.8,11.7-22.5
		c8.7-8.7,16.5-10.1,21.8-10.1h55.5c9.4,0.1,16.8,4.1,23.5,10.4c6.2,6.6,10.3,14.8,10.3,23.8v33.9c0,6.7-1.8,16.4-10.7,24.5
		s-15.7,10.7-22.8,10.7H271.4z M374,417.3v43.9h14.9v-43.9H374z M391.2,404.9c0,4.2-4.2,7.7-9.4,7.7s-9.4-3.4-9.4-7.7
		c0-4.2,4.2-7.7,9.4-7.7S391.2,400.7,391.2,404.9z M311.2,460.8H328v-18.3h31.8v-13.7h-31.9v-14.3H364v-14.2h-52.8L311.2,460.8z"/>
	<path id="path2814" class="st0" d="M183.5,460.3c-0.4-1.3-13.6-58.5-13.6-59.1c0-0.5,2-0.6,8.2-0.6c4.5,0,8.2,0.2,8.2,0.4
		c0,0.6,4.6,31,4.9,32.4c0.3,1.2,0.3,1.2,0.7,0.3c0.2-0.6,1.8-8.2,3.7-17l3.3-16l7.4,0.1l7.4,0.1L217,417c1.8,8.9,3.5,16.3,3.7,16.5
		c0.4,0.4,0.5,0,3.1-17.5l2.2-15h8.1c4.4,0,8.1,0.1,8.1,0.3c0,0.4-13.2,57.3-13.6,58.6c-0.2,0.8-1.1,0.9-7.9,0.9
		c-6.8,0-7.6-0.1-7.9-0.9c-0.1-0.5-1.7-8.2-3.4-17.2s-3.2-16.4-3.3-16.6c-0.4-0.4-0.6,0.7-4,17.8l-3.2,16.6l-7.5,0.1
		C185.5,460.9,183.7,460.8,183.5,460.3L183.5,460.3z"/>
	<path id="path2816" class="st0" d="M250.8,439.1v-21.7h7.2h7.2v21.7v21.7h-7.2h-7.2V439.1z"/>
	<path id="path2818" class="st0" d="M255,411.7c-0.9-0.3-2.4-1.3-3.4-2.2c-3.4-3.2-2.8-7.7,1.2-10.4c1.8-1.2,2.7-1.4,5.3-1.4
		c11.8,0,12.6,13.6,0.8,14.4C257.7,412.2,255.9,412,255,411.7z"/>
	<path id="path2820" class="st0" d="M276.5,479.9c6-6.3,9.8-12.4,12.2-19.8c1.1-3.5,1.2-4.3,1.5-26.9c0.3-25,0.3-24.6,3.2-30.4
		c1.7-3.4,5.8-8.6,9.5-12.1c4.1-3.9,8.2-6.5,12.9-8.2l3.3-1.2h31.7c34.9,0,34.4,0,41.4,3.3c8.9,4.2,17.2,14.3,19.4,23.7
		c1.1,4.8,1.1,44.4,0,48.8c-2.3,9.1-8.8,17.2-18.3,22.8c-7.2,4.3-2.6,4-65.2,4h-55.5L276.5,479.9L276.5,479.9z M388.9,439.1v-22.3
		h-7.7h-7.7v22.3v22.3h7.7h7.7V439.1z M328,451.9v-9h16.1h16.1v-7.2v-7.2h-16.1H328v-6.9v-6.9h18.2h18.2v-7.4V400h-26.9h-26.9
		l0.3,8.5c0.2,4.7,0.3,18.4,0.3,30.4v21.9h8.4h8.4V451.9L328,451.9z M385.5,412.2c5.5-1.5,7.8-8.3,4.1-12
		c-4.3-4.4-11.8-4.3-15.6,0.3c-2.6,3.1-2.5,6.6,0.3,9.4C376.9,412.5,381.2,413.4,385.5,412.2L385.5,412.2z"/>
</g>
</svg>
