  0
SECTION
  2
HEADER
  9
$ACADVER
  1
AC1015
  9
$ACADMAINTVER
 70
     6
  9
$DWGCODEPAGE
  3
ANSI_1252
  9
$INSBASE
 10
0.0
 20
0.0
 30
0.0
  9
$EXTMIN
 10
35.9582428912
 20
26.0176375503
 30
0.0
  9
$EXTMAX
 10
52.4294966357
 20
36.5808662929
 30
0.0
  9
$LIMMIN
 10
0.0
 20
0.0
  9
$LIMMAX
 10
420.0
 20
297.0
  9
$ORTHOMODE
 70
     0
  9
$REGENMODE
 70
     1
  9
$FILLMODE
 70
     1
  9
$QTEXTMODE
 70
     0
  9
$MIRRTEXT
 70
     1
  9
$LTSCALE
 40
1.0
  9
$ATTMODE
 70
     1
  9
$TEXTSIZE
 40
3.5
  9
$TRACEWID
 40
1.0
  9
$TEXTSTYLE
  7
Standard
  9
$CLAYER
  8
0
  9
$CELTYPE
  6
ByLayer
  9
$CECOLOR
 62
   256
  9
$CELTSCALE
 40
1.0
  9
$DISPSILH
 70
     0
  9
$DIMSCALE
 40
1.0
  9
$DIMASZ
 40
3.556
  9
$DIMEXO
 40
1.0
  9
$DIMDLI
 40
3.75
  9
$DIMRND
 40
0.0
  9
$DIMDLE
 40
0.0
  9
$DIMEXE
 40
1.0
  9
$DIMTP
 40
0.0
  9
$DIMTM
 40
0.0
  9
$DIMTXT
 40
3.5
  9
$DIMCEN
 40
2.5
  9
$DIMTSZ
 40
0.0
  9
$DIMTOL
 70
     0
  9
$DIMLIM
 70
     0
  9
$DIMTIH
 70
     1
  9
$DIMTOH
 70
     1
  9
$DIMSE1
 70
     0
  9
$DIMSE2
 70
     0
  9
$DIMTAD
 70
     1
  9
$DIMZIN
 70
     0
  9
$DIMBLK
  1

  9
$DIMASO
 70
     1
  9
$DIMSHO
 70
     1
  9
$DIMPOST
  1

  9
$DIMAPOST
  1

  9
$DIMALT
 70
     0
  9
$DIMALTD
 70
     3
  9
$DIMALTF
 40
0.0393700787
  9
$DIMLFAC
 40
1.0
  9
$DIMTOFL
 70
     1
  9
$DIMTVP
 40
0.0
  9
$DIMTIX
 70
     0
  9
$DIMSOXD
 70
     0
  9
$DIMSAH
 70
     0
  9
$DIMBLK1
  1

  9
$DIMBLK2
  1

  9
$DIMSTYLE
  2
ISO-25
  9
$DIMCLRD
 70
     0
  9
$DIMCLRE
 70
     0
  9
$DIMCLRT
 70
     0
  9
$DIMTFAC
 40
1.0
  9
$DIMGAP
 40
1.524
  9
$DIMJUST
 70
     0
  9
$DIMSD1
 70
     0
  9
$DIMSD2
 70
     0
  9
$DIMTOLJ
 70
     0
  9
$DIMTZIN
 70
     0
  9
$DIMALTZ
 70
     0
  9
$DIMALTTZ
 70
     0
  9
$DIMUPT
 70
     0
  9
$DIMDEC
 70
     2
  9
$DIMTDEC
 70
     2
  9
$DIMALTU
 70
     2
  9
$DIMALTTD
 70
     3
  9
$DIMTXSTY
  7
Standard
  9
$DIMAUNIT
 70
     0
  9
$DIMADEC
 70
     2
  9
$DIMALTRND
 40
0.0
  9
$DIMAZIN
 70
     0
  9
$DIMDSEP
 70
    44
  9
$DIMATFIT
 70
     3
  9
$DIMFRAC
 70
     0
  9
$DIMLDRBLK
  1

  9
$DIMLUNIT
 70
     2
  9
$DIMLWD
 70
    -2
  9
$DIMLWE
 70
    -2
  9
$DIMTMOVE
 70
     0
  9
$LUNITS
 70
     2
  9
$LUPREC
 70
     2
  9
$SKETCHINC
 40
1.0
  9
$FILLETRAD
 40
10.0
  9
$AUNITS
 70
     0
  9
$AUPREC
 70
     2
  9
$MENU
  1
.
  9
$ELEVATION
 40
0.0
  9
$PELEVATION
 40
0.0
  9
$THICKNESS
 40
0.0
  9
$LIMCHECK
 70
     0
  9
$CHAMFERA
 40
0.0
  9
$CHAMFERB
 40
0.0
  9
$CHAMFERC
 40
0.0
  9
$CHAMFERD
 40
0.0
  9
$SKPOLY
 70
     0
  9
$TDCREATE
 40
2458484.687094074
  9
$TDUCREATE
 40
2458484.645427407
  9
$TDUPDATE
 40
2458484.687163229
  9
$TDUUPDATE
 40
2458484.645496563
  9
$TDINDWG
 40
0.0000000116
  9
$TDUSRTIMER
 40
0.0000000116
  9
$USRTIMER
 70
     1
  9
$ANGBASE
 50
0.0
  9
$ANGDIR
 70
     0
  9
$PDMODE
 70
     0
  9
$PDSIZE
 40
-1.0
  9
$PLINEWID
 40
0.0
  9
$SPLFRAME
 70
     0
  9
$SPLINETYPE
 70
     6
  9
$SPLINESEGS
 70
     8
  9
$HANDSEED
  5
293
  9
$SURFTAB1
 70
     6
  9
$SURFTAB2
 70
     6
  9
$SURFTYPE
 70
     6
  9
$SURFU
 70
     6
  9
$SURFV
 70
     6
  9
$UCSBASE
  2

  9
$UCSNAME
  2

  9
$UCSORG
 10
0.0
 20
0.0
 30
0.0
  9
$UCSXDIR
 10
1.0
 20
0.0
 30
0.0
  9
$UCSYDIR
 10
0.0
 20
1.0
 30
0.0
  9
$UCSORTHOREF
  2

  9
$UCSORTHOVIEW
 70
     0
  9
$UCSORGTOP
 10
0.0
 20
0.0
 30
0.0
  9
$UCSORGBOTTOM
 10
0.0
 20
0.0
 30
0.0
  9
$UCSORGLEFT
 10
0.0
 20
0.0
 30
0.0
  9
$UCSORGRIGHT
 10
0.0
 20
0.0
 30
0.0
  9
$UCSORGFRONT
 10
0.0
 20
0.0
 30
0.0
  9
$UCSORGBACK
 10
0.0
 20
0.0
 30
0.0
  9
$PUCSBASE
  2

  9
$PUCSNAME
  2

  9
$PUCSORG
 10
0.0
 20
0.0
 30
0.0
  9
$PUCSXDIR
 10
1.0
 20
0.0
 30
0.0
  9
$PUCSYDIR
 10
0.0
 20
1.0
 30
0.0
  9
$PUCSORTHOREF
  2

  9
$PUCSORTHOVIEW
 70
     0
  9
$PUCSORGTOP
 10
0.0
 20
0.0
 30
0.0
  9
$PUCSORGBOTTOM
 10
0.0
 20
0.0
 30
0.0
  9
$PUCSORGLEFT
 10
0.0
 20
0.0
 30
0.0
  9
$PUCSORGRIGHT
 10
0.0
 20
0.0
 30
0.0
  9
$PUCSORGFRONT
 10
0.0
 20
0.0
 30
0.0
  9
$PUCSORGBACK
 10
0.0
 20
0.0
 30
0.0
  9
$USERI1
 70
     0
  9
$USERI2
 70
     0
  9
$USERI3
 70
     0
  9
$USERI4
 70
     0
  9
$USERI5
 70
     0
  9
$USERR1
 40
0.0
  9
$USERR2
 40
0.0
  9
$USERR3
 40
0.0
  9
$USERR4
 40
0.0
  9
$USERR5
 40
0.0
  9
$WORLDVIEW
 70
     1
  9
$SHADEDGE
 70
     3
  9
$SHADEDIF
 70
    70
  9
$TILEMODE
 70
     1
  9
$MAXACTVP
 70
    64
  9
$PINSBASE
 10
0.0
 20
0.0
 30
0.0
  9
$PLIMCHECK
 70
     0
  9
$PEXTMIN
 10
1.0000000000E+20
 20
1.0000000000E+20
 30
1.0000000000E+20
  9
$PEXTMAX
 10
-1.0000000000E+20
 20
-1.0000000000E+20
 30
-1.0000000000E+20
  9
$PLIMMIN
 10
0.0
 20
0.0
  9
$PLIMMAX
 10
420.0
 20
297.0
  9
$UNITMODE
 70
     0
  9
$VISRETAIN
 70
     1
  9
$PLINEGEN
 70
     0
  9
$PSLTSCALE
 70
     1
  9
$TREEDEPTH
 70
  3020
  9
$CMLSTYLE
  2
Standard
  9
$CMLJUST
 70
     0
  9
$CMLSCALE
 40
20.0
  9
$PROXYGRAPHICS
 70
     1
  9
$MEASUREMENT
 70
     1
  9
$CELWEIGHT
370
    -1
  9
$ENDCAPS
280
     0
  9
$JOINSTYLE
280
     0
  9
$LWDISPLAY
290
     1
  9
$INSUNITS
 70
     4
  9
$HYPERLINKBASE
  1

  9
$STYLESHEET
  1

  9
$XEDIT
290
     1
  9
$CEPSNTYPE
380
     0
  9
$PSTYLEMODE
290
     1
  9
$FINGERPRINTGUID
  2
{E9A6B0F8-3279-4D46-99CE-9B5E4AA53920}
  9
$VERSIONGUID
  2
{FAEB1C32-E019-11D5-929B-00C0DF256EC4}
  9
$EXTNAMES
290
     1
  9
$PSVPSCALE
 40
0.0
  9
$OLESTARTUP
290
     0
  0
ENDSEC
  0
SECTION
  2
CLASSES
  0
CLASS
  1
ACDBDICTIONARYWDFLT
  2
AcDbDictionaryWithDefault
  3
ObjectDBX Classes
 90
        0
280
     0
281
     0
  0
CLASS
  1
VISUALSTYLE
  2
AcDbVisualStyle
  3
ObjectDBX Classes
 90
     4095
280
     0
281
     0
  0
CLASS
  1
MATERIAL
  2
AcDbMaterial
  3
ObjectDBX Classes
 90
     1153
280
     0
281
     0
  0
CLASS
  1
SCALE
  2
AcDbScale
  3
ObjectDBX Classes
 90
     1153
280
     0
281
     0
  0
CLASS
  1
SUN
  2
AcDbSun
  3
SCENEOE
 90
     1153
280
     0
281
     0
  0
CLASS
  1
ACDBPLACEHOLDER
  2
AcDbPlaceHolder
  3
ObjectDBX Classes
 90
        0
280
     0
281
     0
  0
CLASS
  1
LAYOUT
  2
AcDbLayout
  3
ObjectDBX Classes
 90
        0
280
     0
281
     0
  0
ENDSEC
  0
SECTION
  2
TABLES
  0
TABLE
  2
VPORT
  5
8
330
0
100
AcDbSymbolTable
 70
     1
  0
VPORT
  5
29
330
8
100
AcDbSymbolTableRecord
100
AcDbViewportTableRecord
  2
*Active
 70
     0
 10
0.0
 20
0.0
 11
1.0
 21
1.0
 12
44.1938697635
 22
31.2992519216
 13
0.0
 23
0.0
 14
10.0
 24
10.0
 15
10.0
 25
10.0
 16
0.0
 26
0.0
 36
1.0
 17
0.0
 27
0.0
 37
0.0
 40
10.7744933175
 41
1.5593010571
 42
50.0
 43
0.0
 44
0.0
 50
0.0
 51
0.0
 71
     0
 72
   100
 73
     1
 74
     3
 75
     0
 76
     0
 77
     0
 78
     0
281
     0
 65
     1
110
0.0
120
0.0
130
0.0
111
1.0
121
0.0
131
0.0
112
0.0
122
1.0
132
0.0
 79
     0
146
0.0
  0
ENDTAB
  0
TABLE
  2
LTYPE
  5
5
330
0
100
AcDbSymbolTable
 70
     6
  0
LTYPE
  5
14
330
5
100
AcDbSymbolTableRecord
100
AcDbLinetypeTableRecord
  2
ByBlock
 70
     0
  3

 72
    65
 73
     0
 40
0.0
  0
LTYPE
  5
15
330
5
100
AcDbSymbolTableRecord
100
AcDbLinetypeTableRecord
  2
ByLayer
 70
     0
  3

 72
    65
 73
     0
 40
0.0
  0
LTYPE
  5
16
330
5
100
AcDbSymbolTableRecord
100
AcDbLinetypeTableRecord
  2
Continuous
 70
     0
  3
Solid line
 72
    65
 73
     0
 40
0.0
  0
LTYPE
  5
6A
330
5
100
AcDbSymbolTableRecord
100
AcDbLinetypeTableRecord
  2
HIDDEN
 70
     0
  3
Hidden __ __ __ __ __ __ __ __ __ __ __ __ __ __
 72
    65
 73
     2
 40
1.905
 49
1.27
 74
     0
 49
-0.635
 74
     0
  0
LTYPE
  5
6B
330
5
100
AcDbSymbolTableRecord
100
AcDbLinetypeTableRecord
  2
PHANTOM
 70
     0
  3
Phantom ______  __  __  ______  __  __  ______
 72
    65
 73
     6
 40
12.7
 49
6.35
 74
     0
 49
-1.27
 74
     0
 49
1.27
 74
     0
 49
-1.27
 74
     0
 49
1.27
 74
     0
 49
-1.27
 74
     0
  0
LTYPE
  5
6C
330
5
100
AcDbSymbolTableRecord
100
AcDbLinetypeTableRecord
  2
CENTER
 70
     0
  3
Center ____ _ ____ _ ____ _ ____ _ ____ _ ____
 72
    65
 73
     4
 40
10.16
 49
6.35
 74
     0
 49
-1.27
 74
     0
 49
1.27
 74
     0
 49
-1.27
 74
     0
  0
LTYPE
  5
6D
330
5
100
AcDbSymbolTableRecord
100
AcDbLinetypeTableRecord
  2
CENTERX2
 70
     0
  3
Center (2x) ________  __  ________  __  _____
 72
    65
 73
     4
 40
20.32
 49
12.7
 74
     0
 49
-2.54
 74
     0
 49
2.54
 74
     0
 49
-2.54
 74
     0
  0
LTYPE
  5
6E
330
5
100
AcDbSymbolTableRecord
100
AcDbLinetypeTableRecord
  2
DOT2
 70
     0
  3
Dot (.5x) ........................................
 72
    65
 73
     2
 40
0.635
 49
0.0
 74
     0
 49
-0.635
 74
     0
  0
ENDTAB
  0
TABLE
  2
LAYER
  5
2
330
0
100
AcDbSymbolTable
 70
     1
  0
LAYER
  5
10
330
2
100
AcDbSymbolTableRecord
100
AcDbLayerTableRecord
  2
0
 70
     0
 62
     7
  6
Continuous
370
    -3
390
F
  0
ENDTAB
  0
TABLE
  2
STYLE
  5
3
330
0
100
AcDbSymbolTable
 70
     1
  0
STYLE
  5
11
330
3
100
AcDbSymbolTableRecord
100
AcDbTextStyleTableRecord
  2
Standard
 70
     0
 40
0.0
 41
1.0
 50
0.0
 71
     0
 42
3.5
  3
txt
  4

  0
ENDTAB
  0
TABLE
  2
VIEW
  5
6
330
0
100
AcDbSymbolTable
 70
     0
  0
ENDTAB
  0
TABLE
  2
UCS
  5
7
330
0
100
AcDbSymbolTable
 70
     0
  0
ENDTAB
  0
TABLE
  2
APPID
  5
9
330
0
100
AcDbSymbolTable
 70
     1
  0
APPID
  5
12
330
9
100
AcDbSymbolTableRecord
100
AcDbRegAppTableRecord
  2
ACAD
 70
     0
  0
ENDTAB
  0
TABLE
  2
DIMSTYLE
  5
A
330
0
100
AcDbSymbolTable
 70
     1
100
AcDbDimStyleTable
  0
DIMSTYLE
105
27
330
A
100
AcDbSymbolTableRecord
100
AcDbDimStyleTableRecord
  2
ISO-25
 70
     0
 41
2.5
 42
0.625
 43
3.75
 44
1.25
 73
     0
 74
     0
 77
     1
 78
     8
140
2.5
141
2.5
143
0.0393700787
147
0.625
171
     3
172
     1
178
     0
271
     2
272
     2
274
     3
278
    44
283
     0
284
     8
340
11
  0
ENDTAB
  0
TABLE
  2
BLOCK_RECORD
  5
1
330
0
100
AcDbSymbolTable
 70
     1
  0
BLOCK_RECORD
  5
1F
330
1
100
AcDbSymbolTableRecord
100
AcDbBlockTableRecord
  2
*Model_Space
340
22
  0
BLOCK_RECORD
  5
1B
330
1
100
AcDbSymbolTableRecord
100
AcDbBlockTableRecord
  2
*Paper_Space
340
1E
  0
BLOCK_RECORD
  5
23
330
1
100
AcDbSymbolTableRecord
100
AcDbBlockTableRecord
  2
*Paper_Space0
340
26
  0
ENDTAB
  0
ENDSEC
  0
SECTION
  2
BLOCKS
  0
BLOCK
  5
20
330
1F
100
AcDbEntity
  8
0
100
AcDbBlockBegin
  2
*Model_Space
 70
     0
 10
0.0
 20
0.0
 30
0.0
  3
*Model_Space
  1
*Model_Space
  0
ENDBLK
  5
21
330
1F
100
AcDbEntity
  8
0
100
AcDbBlockEnd
  0
BLOCK
  5
1C
330
1B
100
AcDbEntity
 67
     1
  8
0
100
AcDbBlockBegin
  2
*Paper_Space
 70
     0
 10
0.0
 20
0.0
 30
0.0
  3
*Paper_Space
  1
*Paper_Space
  0
ENDBLK
  5
1D
330
1B
100
AcDbEntity
 67
     1
  8
0
100
AcDbBlockEnd
  0
BLOCK
  5
24
330
23
100
AcDbEntity
  8
0
100
AcDbBlockBegin
  2
*Paper_Space0
 70
     0
 10
0.0
 20
0.0
 30
0.0
  3
*Paper_Space0
  1
*Paper_Space0
  0
ENDBLK
  5
25
330
23
100
AcDbEntity
  8
0
100
AcDbBlockEnd
  0
ENDSEC
  0
SECTION
  2
ENTITIES
  0
LINE
  5
6F
330
1F
100
AcDbEntity
  8
0
  6
Continuous
 62
     7
100
AcDbLine
 10
51.1395792073
 20
34.3380521367
 30
0.0
 11
51.1395792073
 21
34.2234311981
 31
0.0
  0
LINE
  5
70
330
1F
100
AcDbEntity
  8
0
  6
Continuous
 62
     7
100
AcDbLine
 10
51.1395792073
 20
34.2234311981
 30
0.0
 11
51.3414497427
 21
34.2234311981
 31
0.0
  0
LINE
  5
71
330
1F
100
AcDbEntity
  8
0
  6
Continuous
 62
     7
100
AcDbLine
 10
51.3414497427
 20
34.2234311981
 30
0.0
 11
51.3414497427
 21
33.6605893899
 31
0.0
  0
LINE
  5
72
330
1F
100
AcDbEntity
  8
0
  6
Continuous
 62
     7
100
AcDbLine
 10
51.3414497427
 20
33.6605893899
 30
0.0
 11
51.4697568324
 21
33.6605893899
 31
0.0
  0
LINE
  5
73
330
1F
100
AcDbEntity
  8
0
  6
Continuous
 62
     7
100
AcDbLine
 10
51.4697568324
 20
33.6605893899
 30
0.0
 11
51.4697568324
 21
34.2217202371
 31
0.0
  0
LINE
  5
74
330
1F
100
AcDbEntity
  8
0
  6
Continuous
 62
     7
100
AcDbLine
 10
51.4697568324
 20
34.2217202371
 30
0.0
 11
51.6682054459
 21
34.2217202371
 31
0.0
  0
LINE
  5
75
330
1F
100
AcDbEntity
  8
0
  6
Continuous
 62
     7
100
AcDbLine
 10
51.6682054459
 20
34.2217202371
 30
0.0
 11
51.6682054459
 21
34.3380521367
 31
0.0
  0
LINE
  5
76
330
1F
100
AcDbEntity
  8
0
  6
Continuous
 62
     7
100
AcDbLine
 10
51.6682054459
 20
34.3380521367
 30
0.0
 11
51.1395792073
 21
34.3380521367
 31
0.0
  0
LINE
  5
77
330
1F
100
AcDbEntity
  8
0
  6
Continuous
 62
     7
100
AcDbLine
 10
51.7879592672
 20
34.3363417519
 30
0.0
 11
51.7879592672
 21
33.6605893899
 31
0.0
  0
LINE
  5
78
330
1F
100
AcDbEntity
  8
0
  6
Continuous
 62
     7
100
AcDbLine
 10
51.7879592672
 20
33.6605893899
 30
0.0
 11
51.8906053998
 21
33.6605893899
 31
0.0
  0
LINE
  5
79
330
1F
100
AcDbEntity
  8
0
  6
Continuous
 62
     7
100
AcDbLine
 10
51.8906053998
 20
33.6605893899
 30
0.0
 11
51.8906053998
 21
34.1840835139
 31
0.0
  0
LINE
  5
7A
330
1F
100
AcDbEntity
  8
0
  6
Continuous
 62
     7
100
AcDbLine
 10
51.8906053998
 20
34.1840835139
 30
0.0
 11
52.050542511
 21
33.7374000128
 31
0.0
  0
LINE
  5
7B
330
1F
100
AcDbEntity
  8
0
  6
Continuous
 62
     7
100
AcDbLine
 10
52.050542511
 20
33.7374000128
 30
0.0
 11
52.15885949
 21
33.7374000128
 31
0.0
  0
LINE
  5
7C
330
1F
100
AcDbEntity
  8
0
  6
Continuous
 62
     7
100
AcDbLine
 10
52.15885949
 20
33.7374000128
 30
0.0
 11
52.3251395422
 21
34.1772404384
 31
0.0
  0
LINE
  5
7D
330
1F
100
AcDbEntity
  8
0
  6
Continuous
 62
     7
100
AcDbLine
 10
52.3251395422
 20
34.1772404384
 30
0.0
 11
52.3251395422
 21
33.6605893899
 31
0.0
  0
LINE
  5
7E
330
1F
100
AcDbEntity
  8
0
  6
Continuous
 62
     7
100
AcDbLine
 10
52.3251395422
 20
33.6605893899
 30
0.0
 11
52.4294966357
 21
33.6605893899
 31
0.0
  0
LINE
  5
7F
330
1F
100
AcDbEntity
  8
0
  6
Continuous
 62
     7
100
AcDbLine
 10
52.4294966357
 20
33.6605893899
 30
0.0
 11
52.4294966357
 21
34.3380521367
 31
0.0
  0
LINE
  5
80
330
1F
100
AcDbEntity
  8
0
  6
Continuous
 62
     7
100
AcDbLine
 10
52.4294966357
 20
34.3380521367
 30
0.0
 11
52.2378905216
 21
34.3380521367
 31
0.0
  0
LINE
  5
81
330
1F
100
AcDbEntity
  8
0
  6
Continuous
 62
     7
100
AcDbLine
 10
52.2378905216
 20
34.3380521367
 30
0.0
 11
52.1027847147
 21
33.8618767391
 31
0.0
  0
LINE
  5
82
330
1F
100
AcDbEntity
  8
0
  6
Continuous
 62
     7
100
AcDbLine
 10
52.1027847147
 20
33.8618767391
 30
0.0
 11
51.9641682695
 21
34.3363417519
 31
0.0
  0
LINE
  5
83
330
1F
100
AcDbEntity
  8
0
  6
Continuous
 62
     7
100
AcDbLine
 10
51.9641682695
 20
34.3363417519
 30
0.0
 11
51.7879592672
 21
34.3363417519
 31
0.0
  0
LINE
  5
84
330
1F
100
AcDbEntity
  8
0
  6
Continuous
 62
     7
100
AcDbLine
 10
43.4034961748
 20
36.5808662929
 30
0.0
 11
43.8829001865
 21
36.5590422232
 31
0.0
  0
LINE
  5
85
330
1F
100
AcDbEntity
  8
0
  6
Continuous
 62
     7
100
AcDbLine
 10
43.8829001865
 20
36.5590422232
 30
0.0
 11
44.3582537354
 21
36.4931756624
 31
0.0
  0
LINE
  5
86
330
1F
100
AcDbEntity
  8
0
  6
Continuous
 62
     7
100
AcDbLine
 10
44.3582537354
 20
36.4931756624
 30
0.0
 11
44.825469436
 21
36.3835863178
 31
0.0
  0
LINE
  5
87
330
1F
100
AcDbEntity
  8
0
  6
Continuous
 62
     7
100
AcDbLine
 10
44.825469436
 20
36.3835863178
 30
0.0
 11
45.2807103755
 21
36.2317235638
 31
0.0
  0
LINE
  5
88
330
1F
100
AcDbEntity
  8
0
  6
Continuous
 62
     7
100
AcDbLine
 10
45.2807103755
 20
36.2317235638
 30
0.0
 11
45.7206269786
 21
36.0399166823
 31
0.0
  0
LINE
  5
89
330
1F
100
AcDbEntity
  8
0
  6
Continuous
 62
     7
100
AcDbLine
 10
45.7206269786
 20
36.0399166823
 30
0.0
 11
46.1424454596
 21
35.811013138
 31
0.0
  0
LINE
  5
8A
330
1F
100
AcDbEntity
  8
0
  6
Continuous
 62
     7
100
AcDbLine
 10
46.1424454596
 20
35.811013138
 30
0.0
 11
46.5438771804
 21
35.5479728927
 31
0.0
  0
LINE
  5
8B
330
1F
100
AcDbEntity
  8
0
  6
Continuous
 62
     7
100
AcDbLine
 10
46.5438771804
 20
35.5479728927
 30
0.0
 11
46.9228047567
 21
35.2534282392
 31
0.0
  0
LINE
  5
8C
330
1F
100
AcDbEntity
  8
0
  6
Continuous
 62
     7
100
AcDbLine
 10
46.9228047567
 20
35.2534282392
 30
0.0
 11
47.2764787678
 21
34.929009149
 31
0.0
  0
LINE
  5
8D
330
1F
100
AcDbEntity
  8
0
  6
Continuous
 62
     7
100
AcDbLine
 10
47.2764787678
 20
34.929009149
 30
0.0
 11
47.5777647439
 21
34.5963780449
 31
0.0
  0
LINE
  5
8E
330
1F
100
AcDbEntity
  8
0
  6
Continuous
 62
     7
100
AcDbLine
 10
47.5777647439
 20
34.5963780449
 30
0.0
 11
48.7821435364
 21
34.5963780449
 31
0.0
  0
LINE
  5
8F
330
1F
100
AcDbEntity
  8
0
  6
Continuous
 62
     7
100
AcDbLine
 10
48.7821435364
 20
34.5963780449
 30
0.0
 11
49.2520916436
 21
34.5098070066
 31
0.0
  0
LINE
  5
90
330
1F
100
AcDbEntity
  8
0
  6
Continuous
 62
     7
100
AcDbLine
 10
49.2520916436
 20
34.5098070066
 30
0.0
 11
49.4683250788
 21
34.4182364827
 31
0.0
  0
LINE
  5
91
330
1F
100
AcDbEntity
  8
0
  6
Continuous
 62
     7
100
AcDbLine
 10
49.4683250788
 20
34.4182364827
 30
0.0
 11
49.882520713
 21
34.1764318537
 31
0.0
  0
LINE
  5
92
330
1F
100
AcDbEntity
  8
0
  6
Continuous
 62
     7
100
AcDbLine
 10
49.882520713
 20
34.1764318537
 30
0.0
 11
50.2428524951
 21
33.8606023596
 31
0.0
  0
LINE
  5
93
330
1F
100
AcDbEntity
  8
0
  6
Continuous
 62
     7
100
AcDbLine
 10
50.2428524951
 20
33.8606023596
 30
0.0
 11
50.5364340963
 21
33.4814489624
 31
0.0
  0
LINE
  5
94
330
1F
100
AcDbEntity
  8
0
  6
Continuous
 62
     7
100
AcDbLine
 10
50.5364340963
 20
33.4814489624
 30
0.0
 11
50.5558220063
 21
33.4516735746
 31
0.0
  0
LINE
  5
95
330
1F
100
AcDbEntity
  8
0
  6
Continuous
 62
     7
100
AcDbLine
 10
50.5558220063
 20
33.4516735746
 30
0.0
 11
50.7847096914
 21
33.0302674022
 31
0.0
  0
LINE
  5
96
330
1F
100
AcDbEntity
  8
0
  6
Continuous
 62
     7
100
AcDbLine
 10
50.7847096914
 20
33.0302674022
 30
0.0
 11
50.9273211368
 21
32.5729987378
 31
0.0
  0
LINE
  5
97
330
1F
100
AcDbEntity
  8
0
  6
Continuous
 62
     7
100
AcDbLine
 10
50.9273211368
 20
32.5729987378
 30
0.0
 11
50.9582380905
 21
32.2149921858
 31
0.0
  0
LINE
  5
98
330
1F
100
AcDbEntity
  8
0
  6
Continuous
 62
     7
100
AcDbLine
 10
50.9582380905
 20
32.2149921858
 30
0.0
 11
50.9582380905
 21
30.1483870318
 31
0.0
  0
LINE
  5
99
330
1F
100
AcDbEntity
  8
0
  6
Continuous
 62
     7
100
AcDbLine
 10
50.9582380905
 20
30.1483870318
 30
0.0
 11
50.9054730397
 21
29.6729724739
 31
0.0
  0
LINE
  5
9A
330
1F
100
AcDbEntity
  8
0
  6
Continuous
 62
     7
100
AcDbLine
 10
50.9054730397
 20
29.6729724739
 30
0.0
 11
50.6953051073
 21
29.2435839674
 31
0.0
  0
LINE
  5
9B
330
1F
100
AcDbEntity
  8
0
  6
Continuous
 62
     7
100
AcDbLine
 10
50.6953051073
 20
29.2435839674
 30
0.0
 11
50.3953029564
 21
28.8693306228
 31
0.0
  0
LINE
  5
9C
330
1F
100
AcDbEntity
  8
0
  6
Continuous
 62
     7
100
AcDbLine
 10
50.3953029564
 20
28.8693306228
 30
0.0
 11
50.1918145941
 21
28.6565990681
 31
0.0
  0
LINE
  5
9D
330
1F
100
AcDbEntity
  8
0
  6
Continuous
 62
     7
100
AcDbLine
 10
50.1918145941
 20
28.6565990681
 30
0.0
 11
49.817697686
 21
28.3573495965
 31
0.0
  0
LINE
  5
9E
330
1F
100
AcDbEntity
  8
0
  6
Continuous
 62
     7
100
AcDbLine
 10
49.817697686
 20
28.3573495965
 30
0.0
 11
49.3869473679
 21
28.1475653829
 31
0.0
  0
LINE
  5
9F
330
1F
100
AcDbEntity
  8
0
  6
Continuous
 62
     7
100
AcDbLine
 10
49.3869473679
 20
28.1475653829
 30
0.0
 11
48.9217284258
 21
28.0325240114
 31
0.0
  0
LINE
  5
A0
330
1F
100
AcDbEntity
  8
0
  6
Continuous
 62
     7
100
AcDbLine
 10
48.9217284258
 20
28.0325240114
 30
0.0
 11
48.5357935863
 21
28.0133511228
 31
0.0
  0
LINE
  5
A1
330
1F
100
AcDbEntity
  8
0
  6
Continuous
 62
     7
100
AcDbLine
 10
48.5357935863
 20
28.0133511228
 30
0.0
 11
47.4272172748
 21
28.0133511228
 31
0.0
  0
LINE
  5
A2
330
1F
100
AcDbEntity
  8
0
  6
Continuous
 62
     7
100
AcDbLine
 10
47.4272172748
 20
28.0133511228
 30
0.0
 11
47.1187942123
 21
27.6458737597
 31
0.0
  0
LINE
  5
A3
330
1F
100
AcDbEntity
  8
0
  6
Continuous
 62
     7
100
AcDbLine
 10
47.1187942123
 20
27.6458737597
 30
0.0
 11
46.7744241682
 21
27.311631994
 31
0.0
  0
LINE
  5
A4
330
1F
100
AcDbEntity
  8
0
  6
Continuous
 62
     7
100
AcDbLine
 10
46.7744241682
 20
27.311631994
 30
0.0
 11
46.4017483252
 21
27.0092600728
 31
0.0
  0
LINE
  5
A5
330
1F
100
AcDbEntity
  8
0
  6
Continuous
 62
     7
100
AcDbLine
 10
46.4017483252
 20
27.0092600728
 30
0.0
 11
46.0036864607
 21
26.7412010142
 31
0.0
  0
LINE
  5
A6
330
1F
100
AcDbEntity
  8
0
  6
Continuous
 62
     7
100
AcDbLine
 10
46.0036864607
 20
26.7412010142
 30
0.0
 11
45.5827229546
 21
26.5107951003
 31
0.0
  0
LINE
  5
A7
330
1F
100
AcDbEntity
  8
0
  6
Continuous
 62
     7
100
AcDbLine
 10
45.5827229546
 20
26.5107951003
 30
0.0
 11
45.1417416986
 21
26.3215323197
 31
0.0
  0
LINE
  5
A8
330
1F
100
AcDbEntity
  8
0
  6
Continuous
 62
     7
100
AcDbLine
 10
45.1417416986
 20
26.3215323197
 30
0.0
 11
44.6843196345
 21
26.1764810504
 31
0.0
  0
LINE
  5
A9
330
1F
100
AcDbEntity
  8
0
  6
Continuous
 62
     7
100
AcDbLine
 10
44.6843196345
 20
26.1764810504
 30
0.0
 11
44.2147188141
 21
26.0777687528
 31
0.0
  0
LINE
  5
AA
330
1F
100
AcDbEntity
  8
0
  6
Continuous
 62
     7
100
AcDbLine
 10
44.2147188141
 20
26.0777687528
 30
0.0
 11
43.7376273066
 21
26.0261904039
 31
0.0
  0
LINE
  5
AB
330
1F
100
AcDbEntity
  8
0
  6
Continuous
 62
     7
100
AcDbLine
 10
43.7376273066
 20
26.0261904039
 30
0.0
 11
43.4445542438
 21
26.0176375503
 31
0.0
  0
LINE
  5
AC
330
1F
100
AcDbEntity
  8
0
  6
Continuous
 62
     7
100
AcDbLine
 10
43.4445542438
 20
26.0176375503
 30
0.0
 11
42.9652207736
 21
26.0405690411
 31
0.0
  0
LINE
  5
AD
330
1F
100
AcDbEntity
  8
0
  6
Continuous
 62
     7
100
AcDbLine
 10
42.9652207736
 20
26.0405690411
 30
0.0
 11
42.4904675524
 21
26.1104404609
 31
0.0
  0
LINE
  5
AE
330
1F
100
AcDbEntity
  8
0
  6
Continuous
 62
     7
100
AcDbLine
 10
42.4904675524
 20
26.1104404609
 30
0.0
 11
42.0251690302
 21
26.2277597276
 31
0.0
  0
LINE
  5
AF
330
1F
100
AcDbEntity
  8
0
  6
Continuous
 62
     7
100
AcDbLine
 10
42.0251690302
 20
26.2277597276
 30
0.0
 11
41.5741137948
 21
26.3915209719
 31
0.0
  0
LINE
  5
B0
330
1F
100
AcDbEntity
  8
0
  6
Continuous
 62
     7
100
AcDbLine
 10
41.5741137948
 20
26.3915209719
 30
0.0
 11
41.1416059636
 21
26.5994010672
 31
0.0
  0
LINE
  5
B1
330
1F
100
AcDbEntity
  8
0
  6
Continuous
 62
     7
100
AcDbLine
 10
41.1416059636
 20
26.5994010672
 30
0.0
 11
40.7312514662
 21
26.8481944625
 31
0.0
  0
LINE
  5
B2
330
1F
100
AcDbEntity
  8
0
  6
Continuous
 62
     7
100
AcDbLine
 10
40.7312514662
 20
26.8481944625
 30
0.0
 11
40.3460296038
 21
27.1343828435
 31
0.0
  0
LINE
  5
B3
330
1F
100
AcDbEntity
  8
0
  6
Continuous
 62
     7
100
AcDbLine
 10
40.3460296038
 20
27.1343828435
 30
0.0
 11
39.9887744598
 21
27.4548058122
 31
0.0
  0
LINE
  5
B4
330
1F
100
AcDbEntity
  8
0
  6
Continuous
 62
     7
100
AcDbLine
 10
39.9887744598
 20
27.4548058122
 30
0.0
 11
39.6637830955
 21
27.8078640374
 31
0.0
  0
LINE
  5
B5
330
1F
100
AcDbEntity
  8
0
  6
Continuous
 62
     7
100
AcDbLine
 10
39.6637830955
 20
27.8078640374
 30
0.0
 11
39.516636201
 21
27.9996649717
 31
0.0
  0
LINE
  5
B6
330
1F
100
AcDbEntity
  8
0
  6
Continuous
 62
     7
100
AcDbLine
 10
39.516636201
 20
27.9996649717
 30
0.0
 11
38.2848843383
 21
27.9996649717
 31
0.0
  0
LINE
  5
B7
330
1F
100
AcDbEntity
  8
0
  6
Continuous
 62
     7
100
AcDbLine
 10
38.2848843383
 20
27.9996649717
 30
0.0
 11
37.8108995203
 21
28.0653126662
 31
0.0
  0
LINE
  5
B8
330
1F
100
AcDbEntity
  8
0
  6
Continuous
 62
     7
100
AcDbLine
 10
37.8108995203
 20
28.0653126662
 30
0.0
 11
37.3640267301
 21
28.2383600254
 31
0.0
  0
LINE
  5
B9
330
1F
100
AcDbEntity
  8
0
  6
Continuous
 62
     7
100
AcDbLine
 10
37.3640267301
 20
28.2383600254
 30
0.0
 11
36.959449498
 21
28.4954858154
 31
0.0
  0
LINE
  5
BA
330
1F
100
AcDbEntity
  8
0
  6
Continuous
 62
     7
100
AcDbLine
 10
36.959449498
 20
28.4954858154
 30
0.0
 11
36.6836075505
 21
28.7387157821
 31
0.0
  0
LINE
  5
BB
330
1F
100
AcDbEntity
  8
0
  6
Continuous
 62
     7
100
AcDbLine
 10
36.6836075505
 20
28.7387157821
 30
0.0
 11
36.3744552368
 21
29.1051979561
 31
0.0
  0
LINE
  5
BC
330
1F
100
AcDbEntity
  8
0
  6
Continuous
 62
     7
100
AcDbLine
 10
36.3744552368
 20
29.1051979561
 30
0.0
 11
36.1388486726
 21
29.5225618461
 31
0.0
  0
LINE
  5
BD
330
1F
100
AcDbEntity
  8
0
  6
Continuous
 62
     7
100
AcDbLine
 10
36.1388486726
 20
29.5225618461
 30
0.0
 11
35.9955676093
 21
29.9797206092
 31
0.0
  0
LINE
  5
BE
330
1F
100
AcDbEntity
  8
0
  6
Continuous
 62
     7
100
AcDbLine
 10
35.9955676093
 20
29.9797206092
 30
0.0
 11
35.9582428912
 21
30.3263062268
 31
0.0
  0
LINE
  5
BF
330
1F
100
AcDbEntity
  8
0
  6
Continuous
 62
     7
100
AcDbLine
 10
35.9582428912
 20
30.3263062268
 30
0.0
 11
35.9582428912
 21
32.2149921858
 31
0.0
  0
LINE
  5
C0
330
1F
100
AcDbEntity
  8
0
  6
Continuous
 62
     7
100
AcDbLine
 10
35.9582428912
 20
32.2149921858
 30
0.0
 11
36.0383639845
 21
32.6868313814
 31
0.0
  0
LINE
  5
C1
330
1F
100
AcDbEntity
  8
0
  6
Continuous
 62
     7
100
AcDbLine
 10
36.0383639845
 20
32.6868313814
 30
0.0
 11
36.2201907733
 21
33.1303211537
 31
0.0
  0
LINE
  5
C2
330
1F
100
AcDbEntity
  8
0
  6
Continuous
 62
     7
100
AcDbLine
 10
36.2201907733
 20
33.1303211537
 30
0.0
 11
36.4793891419
 21
33.5337042005
 31
0.0
  0
LINE
  5
C3
330
1F
100
AcDbEntity
  8
0
  6
Continuous
 62
     7
100
AcDbLine
 10
36.4793891419
 20
33.5337042005
 30
0.0
 11
36.7520381135
 21
33.8436408916
 31
0.0
  0
LINE
  5
C4
330
1F
100
AcDbEntity
  8
0
  6
Continuous
 62
     7
100
AcDbLine
 10
36.7520381135
 20
33.8436408916
 30
0.0
 11
37.1167540356
 21
34.1549891334
 31
0.0
  0
LINE
  5
C5
330
1F
100
AcDbEntity
  8
0
  6
Continuous
 62
     7
100
AcDbLine
 10
37.1167540356
 20
34.1549891334
 30
0.0
 11
37.5309900418
 21
34.3960936749
 31
0.0
  0
LINE
  5
C6
330
1F
100
AcDbEntity
  8
0
  6
Continuous
 62
     7
100
AcDbLine
 10
37.5309900418
 20
34.3960936749
 30
0.0
 11
37.9868582462
 21
34.542991216
 31
0.0
  0
LINE
  5
C7
330
1F
100
AcDbEntity
  8
0
  6
Continuous
 62
     7
100
AcDbLine
 10
37.9868582462
 20
34.542991216
 30
0.0
 11
38.3396291344
 21
34.5690055509
 31
0.0
  0
LINE
  5
C8
330
1F
100
AcDbEntity
  8
0
  6
Continuous
 62
     7
100
AcDbLine
 10
38.3396291344
 20
34.5690055509
 30
0.0
 11
39.4071468009
 21
34.5690055509
 31
0.0
  0
LINE
  5
C9
330
1F
100
AcDbEntity
  8
0
  6
Continuous
 62
     7
100
AcDbLine
 10
39.4071468009
 20
34.5690055509
 30
0.0
 11
39.7101239583
 21
34.9409501789
 31
0.0
  0
LINE
  5
CA
330
1F
100
AcDbEntity
  8
0
  6
Continuous
 62
     7
100
AcDbLine
 10
39.7101239583
 20
34.9409501789
 30
0.0
 11
40.0509584747
 21
35.2787775203
 31
0.0
  0
LINE
  5
CB
330
1F
100
AcDbEntity
  8
0
  6
Continuous
 62
     7
100
AcDbLine
 10
40.0509584747
 20
35.2787775203
 30
0.0
 11
40.4214517578
 21
35.5838022932
 31
0.0
  0
LINE
  5
CC
330
1F
100
AcDbEntity
  8
0
  6
Continuous
 62
     7
100
AcDbLine
 10
40.4214517578
 20
35.5838022932
 30
0.0
 11
40.8183494729
 21
35.8535650976
 31
0.0
  0
LINE
  5
CD
330
1F
100
AcDbEntity
  8
0
  6
Continuous
 62
     7
100
AcDbLine
 10
40.8183494729
 20
35.8535650976
 30
0.0
 11
41.2388399585
 21
36.0848178319
 31
0.0
  0
LINE
  5
CE
330
1F
100
AcDbEntity
  8
0
  6
Continuous
 62
     7
100
AcDbLine
 10
41.2388399585
 20
36.0848178319
 30
0.0
 11
41.6797181179
 21
36.274309708
 31
0.0
  0
LINE
  5
CF
330
1F
100
AcDbEntity
  8
0
  6
Continuous
 62
     7
100
AcDbLine
 10
41.6797181179
 20
36.274309708
 30
0.0
 11
42.1371387251
 21
36.4193640417
 31
0.0
  0
LINE
  5
D0
330
1F
100
AcDbEntity
  8
0
  6
Continuous
 62
     7
100
AcDbLine
 10
42.1371387251
 20
36.4193640417
 30
0.0
 11
42.6066848182
 21
36.5183540463
 31
0.0
  0
LINE
  5
D1
330
1F
100
AcDbEntity
  8
0
  6
Continuous
 62
     7
100
AcDbLine
 10
42.6066848182
 20
36.5183540463
 30
0.0
 11
43.0836674234
 21
36.5710053672
 31
0.0
  0
LINE
  5
D2
330
1F
100
AcDbEntity
  8
0
  6
Continuous
 62
     7
100
AcDbLine
 10
43.0836674234
 20
36.5710053672
 30
0.0
 11
43.4034961748
 21
36.5808662929
 31
0.0
  0
LINE
  5
D3
330
1F
100
AcDbEntity
  8
0
  6
Continuous
 62
     7
100
AcDbLine
 10
37.2700280857
 20
33.0224737512
 30
0.0
 11
38.0316913127
 21
29.7378028856
 31
0.0
  0
LINE
  5
D4
330
1F
100
AcDbEntity
  8
0
  6
Continuous
 62
     7
100
AcDbLine
 10
38.0316913127
 20
29.7378028856
 30
0.0
 11
38.8733876796
 21
29.7378028856
 31
0.0
  0
LINE
  5
D5
330
1F
100
AcDbEntity
  8
0
  6
Continuous
 62
     7
100
AcDbLine
 10
38.8733876796
 20
29.7378028856
 30
0.0
 11
39.2497562563
 21
31.6401744195
 31
0.0
  0
LINE
  5
D6
330
1F
100
AcDbEntity
  8
0
  6
Continuous
 62
     7
100
AcDbLine
 10
39.2497562563
 20
31.6401744195
 30
0.0
 11
39.612438682
 21
29.7378028856
 31
0.0
  0
LINE
  5
D7
330
1F
100
AcDbEntity
  8
0
  6
Continuous
 62
     7
100
AcDbLine
 10
39.612438682
 20
29.7378028856
 30
0.0
 11
40.4746650434
 21
29.7378028856
 31
0.0
  0
LINE
  5
D8
330
1F
100
AcDbEntity
  8
0
  6
Continuous
 62
     7
100
AcDbLine
 10
40.4746650434
 20
29.7378028856
 30
0.0
 11
41.2410877717
 21
33.0224737512
 31
0.0
  0
LINE
  5
D9
330
1F
100
AcDbEntity
  8
0
  6
Continuous
 62
     7
100
AcDbLine
 10
41.2410877717
 20
33.0224737512
 30
0.0
 11
40.3241175743
 21
33.0224737512
 31
0.0
  0
LINE
  5
DA
330
1F
100
AcDbEntity
  8
0
  6
Continuous
 62
     7
100
AcDbLine
 10
40.3241175743
 20
33.0224737512
 30
0.0
 11
40.0572378217
 21
31.2227477738
 31
0.0
  0
LINE
  5
DB
330
1F
100
AcDbEntity
  8
0
  6
Continuous
 62
     7
100
AcDbLine
 10
40.0572378217
 20
31.2227477738
 30
0.0
 11
39.6822947663
 21
33.0224737512
 31
0.0
  0
LINE
  5
DC
330
1F
100
AcDbEntity
  8
0
  6
Continuous
 62
     7
100
AcDbLine
 10
39.6822947663
 20
33.0224737512
 30
0.0
 11
38.8514495251
 21
33.0224737512
 31
0.0
  0
LINE
  5
DD
330
1F
100
AcDbEntity
  8
0
  6
Continuous
 62
     7
100
AcDbLine
 10
38.8514495251
 20
33.0224737512
 30
0.0
 11
38.4764904524
 21
31.2022183553
 31
0.0
  0
LINE
  5
DE
330
1F
100
AcDbEntity
  8
0
  6
Continuous
 62
     7
100
AcDbLine
 10
38.4764904524
 20
31.2022183553
 30
0.0
 11
38.1980180492
 21
33.0224737512
 31
0.0
  0
LINE
  5
DF
330
1F
100
AcDbEntity
  8
0
  6
Continuous
 62
     7
100
AcDbLine
 10
38.1980180492
 20
33.0224737512
 30
0.0
 11
37.2700280857
 21
33.0224737512
 31
0.0
  0
LINE
  5
E0
330
1F
100
AcDbEntity
  8
0
  6
Continuous
 62
     7
100
AcDbLine
 10
41.6742016822
 20
32.1184087309
 30
0.0
 11
41.6742016822
 21
29.7408442098
 31
0.0
  0
LINE
  5
E1
330
1F
100
AcDbEntity
  8
0
  6
Continuous
 62
     7
100
AcDbLine
 10
41.6742016822
 20
29.7408442098
 30
0.0
 11
42.483063922
 21
29.7408442098
 31
0.0
  0
LINE
  5
E2
330
1F
100
AcDbEntity
  8
0
  6
Continuous
 62
     7
100
AcDbLine
 10
42.483063922
 20
29.7408442098
 30
0.0
 11
42.483063922
 21
32.1184087309
 31
0.0
  0
LINE
  5
E3
330
1F
100
AcDbEntity
  8
0
  6
Continuous
 62
     7
100
AcDbLine
 10
42.483063922
 20
32.1184087309
 30
0.0
 11
41.6742016822
 21
32.1184087309
 31
0.0
  0
LINE
  5
E4
330
1F
100
AcDbEntity
  8
0
  6
Continuous
 62
     7
100
AcDbLine
 10
49.9098883709
 20
33.5155338941
 30
0.0
 11
50.2024942996
 21
33.1360990062
 31
0.0
  0
LINE
  5
E5
330
1F
100
AcDbEntity
  8
0
  6
Continuous
 62
     7
100
AcDbLine
 10
50.2024942996
 20
33.1360990062
 30
0.0
 11
50.3987356713
 21
32.6994142099
 31
0.0
  0
LINE
  5
E6
330
1F
100
AcDbEntity
  8
0
  6
Continuous
 62
     7
100
AcDbLine
 10
50.3987356713
 20
32.6994142099
 30
0.0
 11
50.468738897
 21
32.2262570679
 31
0.0
  0
LINE
  5
E7
330
1F
100
AcDbEntity
  8
0
  6
Continuous
 62
     7
100
AcDbLine
 10
50.468738897
 20
32.2262570679
 30
0.0
 11
50.468738897
 21
30.387933848
 31
0.0
  0
LINE
  5
E8
330
1F
100
AcDbEntity
  8
0
  6
Continuous
 62
     7
100
AcDbLine
 10
50.468738897
 20
30.387933848
 30
0.0
 11
50.4094969751
 21
29.912833479
 31
0.0
  0
LINE
  5
E9
330
1F
100
AcDbEntity
  8
0
  6
Continuous
 62
     7
100
AcDbLine
 10
50.4094969751
 20
29.912833479
 30
0.0
 11
50.2262444575
 21
29.4708260662
 31
0.0
  0
LINE
  5
EA
330
1F
100
AcDbEntity
  8
0
  6
Continuous
 62
     7
100
AcDbLine
 10
50.2262444575
 20
29.4708260662
 30
0.0
 11
49.9288332703
 21
29.0958139691
 31
0.0
  0
LINE
  5
EB
330
1F
100
AcDbEntity
  8
0
  6
Continuous
 62
     7
100
AcDbLine
 10
49.9288332703
 20
29.0958139691
 30
0.0
 11
49.890279722
 21
29.0594393399
 31
0.0
  0
LINE
  5
EC
330
1F
100
AcDbEntity
  8
0
  6
Continuous
 62
     7
100
AcDbLine
 10
49.890279722
 20
29.0594393399
 30
0.0
 11
49.515378149
 21
28.7603464078
 31
0.0
  0
LINE
  5
ED
330
1F
100
AcDbEntity
  8
0
  6
Continuous
 62
     7
100
AcDbLine
 10
49.515378149
 20
28.7603464078
 30
0.0
 11
49.0868821672
 21
28.5473269932
 31
0.0
  0
LINE
  5
EE
330
1F
100
AcDbEntity
  8
0
  6
Continuous
 62
     7
100
AcDbLine
 10
49.0868821672
 20
28.5473269932
 30
0.0
 11
48.6549267763
 21
28.4809801649
 31
0.0
  0
LINE
  5
EF
330
1F
100
AcDbEntity
  8
0
  6
Continuous
 62
     7
100
AcDbLine
 10
48.6549267763
 20
28.4809801649
 30
0.0
 11
42.8017062908
 21
28.4809801649
 31
0.0
  0
LINE
  5
F0
330
1F
100
AcDbEntity
  8
0
  6
Continuous
 62
     7
100
AcDbLine
 10
42.8017062908
 20
28.4809801649
 30
0.0
 11
43.147662263
 21
28.8129814168
 31
0.0
  0
LINE
  5
F1
330
1F
100
AcDbEntity
  8
0
  6
Continuous
 62
     7
100
AcDbLine
 10
43.147662263
 20
28.8129814168
 30
0.0
 11
43.4377439995
 21
29.1948776378
 31
0.0
  0
LINE
  5
F2
330
1F
100
AcDbEntity
  8
0
  6
Continuous
 62
     7
100
AcDbLine
 10
43.4377439995
 20
29.1948776378
 30
0.0
 11
43.6584718159
 21
29.6204031604
 31
0.0
  0
LINE
  5
F3
330
1F
100
AcDbEntity
  8
0
  6
Continuous
 62
     7
100
AcDbLine
 10
43.6584718159
 20
29.6204031604
 30
0.0
 11
43.7873114161
 21
30.0818108305
 31
0.0
  0
LINE
  5
F4
330
1F
100
AcDbEntity
  8
0
  6
Continuous
 62
     7
100
AcDbLine
 10
43.7873114161
 20
30.0818108305
 30
0.0
 11
43.8115586221
 21
30.387933848
 31
0.0
  0
LINE
  5
F5
330
1F
100
AcDbEntity
  8
0
  6
Continuous
 62
     7
100
AcDbLine
 10
43.8115586221
 20
30.387933848
 30
0.0
 11
43.8115586221
 21
32.3095943058
 31
0.0
  0
LINE
  5
F6
330
1F
100
AcDbEntity
  8
0
  6
Continuous
 62
     7
100
AcDbLine
 10
43.8115586221
 20
32.3095943058
 30
0.0
 11
43.9133401255
 21
32.7756573297
 31
0.0
  0
LINE
  5
F7
330
1F
100
AcDbEntity
  8
0
  6
Continuous
 62
     7
100
AcDbLine
 10
43.9133401255
 20
32.7756573297
 30
0.0
 11
44.1512299693
 21
33.1913276927
 31
0.0
  0
LINE
  5
F8
330
1F
100
AcDbEntity
  8
0
  6
Continuous
 62
     7
100
AcDbLine
 10
44.1512299693
 20
33.1913276927
 30
0.0
 11
44.4439414855
 21
33.5302406688
 31
0.0
  0
LINE
  5
F9
330
1F
100
AcDbEntity
  8
0
  6
Continuous
 62
     7
100
AcDbLine
 10
44.4439414855
 20
33.5302406688
 30
0.0
 11
44.8147593851
 21
33.8336931987
 31
0.0
  0
LINE
  5
FA
330
1F
100
AcDbEntity
  8
0
  6
Continuous
 62
     7
100
AcDbLine
 10
44.8147593851
 20
33.8336931987
 30
0.0
 11
45.2503754321
 21
34.030859864
 31
0.0
  0
LINE
  5
FB
330
1F
100
AcDbEntity
  8
0
  6
Continuous
 62
     7
100
AcDbLine
 10
45.2503754321
 20
34.030859864
 30
0.0
 11
45.6253707428
 21
34.0792862944
 31
0.0
  0
LINE
  5
FC
330
1F
100
AcDbEntity
  8
0
  6
Continuous
 62
     7
100
AcDbLine
 10
45.6253707428
 20
34.0792862944
 30
0.0
 11
48.6353181274
 21
34.0792862944
 31
0.0
  0
LINE
  5
FD
330
1F
100
AcDbEntity
  8
0
  6
Continuous
 62
     7
100
AcDbLine
 10
48.6353181274
 20
34.0792862944
 30
0.0
 11
49.1083082436
 21
34.007108377
 31
0.0
  0
LINE
  5
FE
330
1F
100
AcDbEntity
  8
0
  6
Continuous
 62
     7
100
AcDbLine
 10
49.1083082436
 20
34.007108377
 30
0.0
 11
49.5421148853
 21
33.8049940778
 31
0.0
  0
LINE
  5
FF
330
1F
100
AcDbEntity
  8
0
  6
Continuous
 62
     7
100
AcDbLine
 10
49.5421148853
 20
33.8049940778
 30
0.0
 11
49.9098883709
 21
33.5155338941
 31
0.0
  0
LINE
  5
100
330
1F
100
AcDbEntity
  8
0
  6
Continuous
 62
     7
100
AcDbLine
 10
44.9586724557
 20
29.7555509845
 30
0.0
 11
45.865578324
 21
29.7555509845
 31
0.0
  0
LINE
  5
101
330
1F
100
AcDbEntity
  8
0
  6
Continuous
 62
     7
100
AcDbLine
 10
45.865578324
 20
29.7555509845
 30
0.0
 11
45.865578324
 21
30.7457940907
 31
0.0
  0
LINE
  5
102
330
1F
100
AcDbEntity
  8
0
  6
Continuous
 62
     7
100
AcDbLine
 10
45.865578324
 20
30.7457940907
 30
0.0
 11
47.5911507566
 21
30.7457940907
 31
0.0
  0
LINE
  5
103
330
1F
100
AcDbEntity
  8
0
  6
Continuous
 62
     7
100
AcDbLine
 10
47.5911507566
 20
30.7457940907
 30
0.0
 11
47.5911507566
 21
31.4860258674
 31
0.0
  0
LINE
  5
104
330
1F
100
AcDbEntity
  8
0
  6
Continuous
 62
     7
100
AcDbLine
 10
47.5911507566
 20
31.4860258674
 30
0.0
 11
45.8606758738
 21
31.4860258674
 31
0.0
  0
LINE
  5
105
330
1F
100
AcDbEntity
  8
0
  6
Continuous
 62
     7
100
AcDbLine
 10
45.8606758738
 20
31.4860258674
 30
0.0
 11
45.8606758738
 21
32.2605722995
 31
0.0
  0
LINE
  5
106
330
1F
100
AcDbEntity
  8
0
  6
Continuous
 62
     7
100
AcDbLine
 10
45.8606758738
 20
32.2605722995
 30
0.0
 11
47.8166515631
 21
32.2605722995
 31
0.0
  0
LINE
  5
107
330
1F
100
AcDbEntity
  8
0
  6
Continuous
 62
     7
100
AcDbLine
 10
47.8166515631
 20
32.2605722995
 30
0.0
 11
47.8166515631
 21
33.0302170495
 31
0.0
  0
LINE
  5
108
330
1F
100
AcDbEntity
  8
0
  6
Continuous
 62
     7
100
AcDbLine
 10
47.8166515631
 20
33.0302170495
 30
0.0
 11
44.9537700054
 21
33.0302170495
 31
0.0
  0
LINE
  5
109
330
1F
100
AcDbEntity
  8
0
  6
Continuous
 62
     7
100
AcDbLine
 10
44.9537700054
 20
33.0302170495
 30
0.0
 11
44.9586724557
 21
29.7555509845
 31
0.0
  0
LINE
  5
10A
330
1F
100
AcDbEntity
  8
0
  6
Continuous
 62
     7
100
AcDbLine
 10
49.1700001306
 20
30.9321563305
 30
0.0
 11
49.1700001306
 21
32.1384548174
 31
0.0
  0
LINE
  5
10B
330
1F
100
AcDbEntity
  8
0
  6
Continuous
 62
     7
100
AcDbLine
 10
49.1700001306
 20
32.1384548174
 30
0.0
 11
48.7540351947
 21
32.1384548174
 31
0.0
  0
LINE
  5
10C
330
1F
100
AcDbEntity
  8
0
  6
Continuous
 62
     7
100
AcDbLine
 10
48.7540351947
 20
32.1384548174
 30
0.0
 11
48.3380700669
 21
32.1384548174
 31
0.0
  0
LINE
  5
10D
330
1F
100
AcDbEntity
  8
0
  6
Continuous
 62
     7
100
AcDbLine
 10
48.3380700669
 20
32.1384548174
 30
0.0
 11
48.3380700669
 21
30.9321563305
 31
0.0
  0
LINE
  5
10E
330
1F
100
AcDbEntity
  8
0
  6
Continuous
 62
     7
100
AcDbLine
 10
48.3380700669
 20
30.9321563305
 30
0.0
 11
48.3380700669
 21
29.7258578437
 31
0.0
  0
LINE
  5
10F
330
1F
100
AcDbEntity
  8
0
  6
Continuous
 62
     7
100
AcDbLine
 10
48.3380700669
 20
29.7258578437
 30
0.0
 11
48.7540351947
 21
29.7258578437
 31
0.0
  0
LINE
  5
110
330
1F
100
AcDbEntity
  8
0
  6
Continuous
 62
     7
100
AcDbLine
 10
48.7540351947
 20
29.7258578437
 30
0.0
 11
49.1700001306
 21
29.7258578437
 31
0.0
  0
LINE
  5
111
330
1F
100
AcDbEntity
  8
0
  6
Continuous
 62
     7
100
AcDbLine
 10
49.1700001306
 20
29.7258578437
 30
0.0
 11
49.1700001306
 21
30.9321563305
 31
0.0
  0
LINE
  5
112
330
1F
100
AcDbEntity
  8
0
  6
Continuous
 62
     7
100
AcDbLine
 10
42.0957903219
 20
32.3733230868
 30
0.0
 11
41.9068603115
 21
32.4029056922
 31
0.0
  0
LINE
  5
113
330
1F
100
AcDbEntity
  8
0
  6
Continuous
 62
     7
100
AcDbLine
 10
41.9068603115
 20
32.4029056922
 30
0.0
 11
41.7384149131
 21
32.4929217047
 31
0.0
  0
LINE
  5
114
330
1F
100
AcDbEntity
  8
0
  6
Continuous
 62
     7
100
AcDbLine
 10
41.7384149131
 20
32.4929217047
 30
0.0
 11
41.6193543682
 21
32.6414579891
 31
0.0
  0
LINE
  5
115
330
1F
100
AcDbEntity
  8
0
  6
Continuous
 62
     7
100
AcDbLine
 10
41.6193543682
 20
32.6414579891
 30
0.0
 11
41.5859623781
 21
32.7900094683
 31
0.0
  0
LINE
  5
116
330
1F
100
AcDbEntity
  8
0
  6
Continuous
 62
     7
100
AcDbLine
 10
41.5859623781
 20
32.7900094683
 30
0.0
 11
41.6374308929
 21
32.97257739
 31
0.0
  0
LINE
  5
117
330
1F
100
AcDbEntity
  8
0
  6
Continuous
 62
     7
100
AcDbLine
 10
41.6374308929
 20
32.97257739
 30
0.0
 11
41.7693741995
 21
33.1100286925
 31
0.0
  0
LINE
  5
118
330
1F
100
AcDbEntity
  8
0
  6
Continuous
 62
     7
100
AcDbLine
 10
41.7693741995
 20
33.1100286925
 30
0.0
 11
41.9438590225
 21
33.1878559932
 31
0.0
  0
LINE
  5
119
330
1F
100
AcDbEntity
  8
0
  6
Continuous
 62
     7
100
AcDbLine
 10
41.9438590225
 20
33.1878559932
 30
0.0
 11
42.0957903219
 21
33.2066958497
 31
0.0
  0
LINE
  5
11A
330
1F
100
AcDbEntity
  8
0
  6
Continuous
 62
     7
100
AcDbLine
 10
42.0957903219
 20
33.2066958497
 30
0.0
 11
42.2847203335
 21
33.1771132459
 31
0.0
  0
LINE
  5
11B
330
1F
100
AcDbEntity
  8
0
  6
Continuous
 62
     7
100
AcDbLine
 10
42.2847203335
 20
33.1771132459
 30
0.0
 11
42.453165794
 21
33.0870973373
 31
0.0
  0
LINE
  5
11C
330
1F
100
AcDbEntity
  8
0
  6
Continuous
 62
     7
100
AcDbLine
 10
42.453165794
 20
33.0870973373
 30
0.0
 11
42.5722265971
 21
32.9385612514
 31
0.0
  0
LINE
  5
11D
330
1F
100
AcDbEntity
  8
0
  6
Continuous
 62
     7
100
AcDbLine
 10
42.5722265971
 20
32.9385612514
 30
0.0
 11
42.6056188417
 21
32.7900094683
 31
0.0
  0
LINE
  5
11E
330
1F
100
AcDbEntity
  8
0
  6
Continuous
 62
     7
100
AcDbLine
 10
42.6056188417
 20
32.7900094683
 30
0.0
 11
42.5541502754
 21
32.6074415662
 31
0.0
  0
LINE
  5
11F
330
1F
100
AcDbEntity
  8
0
  6
Continuous
 62
     7
100
AcDbLine
 10
42.5541502754
 20
32.6074415662
 30
0.0
 11
42.4222068984
 21
32.4699903293
 31
0.0
  0
LINE
  5
120
330
1F
100
AcDbEntity
  8
0
  6
Continuous
 62
     7
100
AcDbLine
 10
42.4222068984
 20
32.4699903293
 30
0.0
 11
42.2477220715
 21
32.392163028
 31
0.0
  0
LINE
  5
121
330
1F
100
AcDbEntity
  8
0
  6
Continuous
 62
     7
100
AcDbLine
 10
42.2477220715
 20
32.392163028
 30
0.0
 11
42.0957903219
 21
32.3733230868
 31
0.0
  0
LINE
  5
122
330
1F
100
AcDbEntity
  8
0
  6
Continuous
 62
     7
100
AcDbLine
 10
48.9833398648
 20
32.3896365518
 30
0.0
 11
49.1515052279
 21
32.4791073992
 31
0.0
  0
LINE
  5
123
330
1F
100
AcDbEntity
  8
0
  6
Continuous
 62
     7
100
AcDbLine
 10
49.1515052279
 20
32.4791073992
 30
0.0
 11
49.2655909544
 21
32.6316554235
 31
0.0
  0
LINE
  5
124
330
1F
100
AcDbEntity
  8
0
  6
Continuous
 62
     7
100
AcDbLine
 10
49.2655909544
 20
32.6316554235
 30
0.0
 11
49.3014176426
 21
32.8184616119
 31
0.0
  0
LINE
  5
125
330
1F
100
AcDbEntity
  8
0
  6
Continuous
 62
     7
100
AcDbLine
 10
49.3014176426
 20
32.8184616119
 30
0.0
 11
49.2398046952
 21
32.9976749899
 31
0.0
  0
LINE
  5
126
330
1F
100
AcDbEntity
  8
0
  6
Continuous
 62
     7
100
AcDbLine
 10
49.2398046952
 20
32.9976749899
 30
0.0
 11
49.2029047316
 21
33.0416589805
 31
0.0
  0
LINE
  5
127
330
1F
100
AcDbEntity
  8
0
  6
Continuous
 62
     7
100
AcDbLine
 10
49.2029047316
 20
33.0416589805
 30
0.0
 11
49.0477773122
 21
33.1533347047
 31
0.0
  0
LINE
  5
128
330
1F
100
AcDbEntity
  8
0
  6
Continuous
 62
     7
100
AcDbLine
 10
49.0477773122
 20
33.1533347047
 30
0.0
 11
48.8650213952
 21
33.2095900667
 31
0.0
  0
LINE
  5
129
330
1F
100
AcDbEntity
  8
0
  6
Continuous
 62
     7
100
AcDbLine
 10
48.8650213952
 20
33.2095900667
 30
0.0
 11
48.6738289751
 21
33.206265395
 31
0.0
  0
LINE
  5
12A
330
1F
100
AcDbEntity
  8
0
  6
Continuous
 62
     7
100
AcDbLine
 10
48.6738289751
 20
33.206265395
 30
0.0
 11
48.4941032068
 21
33.1413816825
 31
0.0
  0
LINE
  5
12B
330
1F
100
AcDbEntity
  8
0
  6
Continuous
 62
     7
100
AcDbLine
 10
48.4941032068
 20
33.1413816825
 30
0.0
 11
48.3577132806
 21
33.0276556009
 31
0.0
  0
LINE
  5
12C
330
1F
100
AcDbEntity
  8
0
  6
Continuous
 62
     7
100
AcDbLine
 10
48.3577132806
 20
33.0276556009
 30
0.0
 11
48.2676883981
 21
32.85987264
 31
0.0
  0
LINE
  5
12D
330
1F
100
AcDbEntity
  8
0
  6
Continuous
 62
     7
100
AcDbLine
 10
48.2676883981
 20
32.85987264
 30
0.0
 11
48.276254617
 21
32.6708916731
 31
0.0
  0
LINE
  5
12E
330
1F
100
AcDbEntity
  8
0
  6
Continuous
 62
     7
100
AcDbLine
 10
48.276254617
 20
32.6708916731
 30
0.0
 11
48.3766715339
 21
32.5176675065
 31
0.0
  0
LINE
  5
12F
330
1F
100
AcDbEntity
  8
0
  6
Continuous
 62
     7
100
AcDbLine
 10
48.3766715339
 20
32.5176675065
 30
0.0
 11
48.535140774
 21
32.4112537111
 31
0.0
  0
LINE
  5
130
330
1F
100
AcDbEntity
  8
0
  6
Continuous
 62
     7
100
AcDbLine
 10
48.535140774
 20
32.4112537111
 30
0.0
 11
48.7206540562
 21
32.3648247896
 31
0.0
  0
LINE
  5
131
330
1F
100
AcDbEntity
  8
0
  6
Continuous
 62
     7
100
AcDbLine
 10
48.7206540562
 20
32.3648247896
 30
0.0
 11
48.9119122106
 21
32.3733783457
 31
0.0
  0
LINE
  5
132
330
1F
100
AcDbEntity
  8
0
  6
Continuous
 62
     7
100
AcDbLine
 10
48.9119122106
 20
32.3733783457
 30
0.0
 11
48.9833398648
 21
32.3896365518
 31
0.0
  0
LINE
  5
133
330
1F
100
AcDbEntity
  8
0
  6
Continuous
 62
     7
100
AcDbLine
 10
43.0836674234
 20
36.5710053672
 30
0.0
 11
43.4034961748
 21
36.5808662929
 31
0.0
  0
LINE
  5
134
330
1F
100
AcDbEntity
  8
0
  6
Continuous
 62
     7
100
AcDbLine
 10
43.4034961748
 20
36.5808662929
 30
0.0
 11
43.8829001865
 21
36.5590422232
 31
0.0
  0
LINE
  5
135
330
1F
100
AcDbEntity
  8
0
  6
Continuous
 62
     7
100
AcDbLine
 10
43.8829001865
 20
36.5590422232
 30
0.0
 11
44.3582537354
 21
36.4931756624
 31
0.0
  0
LINE
  5
136
330
1F
100
AcDbEntity
  8
0
  6
Continuous
 62
     7
100
AcDbLine
 10
44.3582537354
 20
36.4931756624
 30
0.0
 11
44.825469436
 21
36.3835863178
 31
0.0
  0
LINE
  5
137
330
1F
100
AcDbEntity
  8
0
  6
Continuous
 62
     7
100
AcDbLine
 10
44.825469436
 20
36.3835863178
 30
0.0
 11
45.2807103755
 21
36.2317235638
 31
0.0
  0
LINE
  5
138
330
1F
100
AcDbEntity
  8
0
  6
Continuous
 62
     7
100
AcDbLine
 10
45.2807103755
 20
36.2317235638
 30
0.0
 11
45.7206269786
 21
36.0399166823
 31
0.0
  0
LINE
  5
139
330
1F
100
AcDbEntity
  8
0
  6
Continuous
 62
     7
100
AcDbLine
 10
45.7206269786
 20
36.0399166823
 30
0.0
 11
46.1424454596
 21
35.811013138
 31
0.0
  0
LINE
  5
13A
330
1F
100
AcDbEntity
  8
0
  6
Continuous
 62
     7
100
AcDbLine
 10
46.1424454596
 20
35.811013138
 30
0.0
 11
46.5438771804
 21
35.5479728927
 31
0.0
  0
LINE
  5
13B
330
1F
100
AcDbEntity
  8
0
  6
Continuous
 62
     7
100
AcDbLine
 10
46.5438771804
 20
35.5479728927
 30
0.0
 11
46.9228047567
 21
35.2534282392
 31
0.0
  0
LINE
  5
13C
330
1F
100
AcDbEntity
  8
0
  6
Continuous
 62
     7
100
AcDbLine
 10
46.9228047567
 20
35.2534282392
 30
0.0
 11
47.2764787678
 21
34.929009149
 31
0.0
  0
LINE
  5
13D
330
1F
100
AcDbEntity
  8
0
  6
Continuous
 62
     7
100
AcDbLine
 10
47.2764787678
 20
34.929009149
 30
0.0
 11
47.5777647439
 21
34.5963780449
 31
0.0
  0
LINE
  5
13E
330
1F
100
AcDbEntity
  8
0
  6
Continuous
 62
     7
100
AcDbLine
 10
47.5777647439
 20
34.5963780449
 30
0.0
 11
48.7821435364
 21
34.5963780449
 31
0.0
  0
LINE
  5
13F
330
1F
100
AcDbEntity
  8
0
  6
Continuous
 62
     7
100
AcDbLine
 10
48.7821435364
 20
34.5963780449
 30
0.0
 11
49.2520916436
 21
34.5098070066
 31
0.0
  0
LINE
  5
140
330
1F
100
AcDbEntity
  8
0
  6
Continuous
 62
     7
100
AcDbLine
 10
49.2520916436
 20
34.5098070066
 30
0.0
 11
49.4683250788
 21
34.4182364827
 31
0.0
  0
LINE
  5
141
330
1F
100
AcDbEntity
  8
0
  6
Continuous
 62
     7
100
AcDbLine
 10
49.4683250788
 20
34.4182364827
 30
0.0
 11
49.882520713
 21
34.1764318537
 31
0.0
  0
LINE
  5
142
330
1F
100
AcDbEntity
  8
0
  6
Continuous
 62
     7
100
AcDbLine
 10
49.882520713
 20
34.1764318537
 30
0.0
 11
50.2428524951
 21
33.8606023596
 31
0.0
  0
LINE
  5
143
330
1F
100
AcDbEntity
  8
0
  6
Continuous
 62
     7
100
AcDbLine
 10
50.2428524951
 20
33.8606023596
 30
0.0
 11
50.5364340963
 21
33.4814489624
 31
0.0
  0
LINE
  5
144
330
1F
100
AcDbEntity
  8
0
  6
Continuous
 62
     7
100
AcDbLine
 10
50.5364340963
 20
33.4814489624
 30
0.0
 11
50.5558220063
 21
33.4516735746
 31
0.0
  0
LINE
  5
145
330
1F
100
AcDbEntity
  8
0
  6
Continuous
 62
     7
100
AcDbLine
 10
50.5558220063
 20
33.4516735746
 30
0.0
 11
50.7847096914
 21
33.0302674022
 31
0.0
  0
LINE
  5
146
330
1F
100
AcDbEntity
  8
0
  6
Continuous
 62
     7
100
AcDbLine
 10
50.7847096914
 20
33.0302674022
 30
0.0
 11
50.9273211368
 21
32.5729987378
 31
0.0
  0
LINE
  5
147
330
1F
100
AcDbEntity
  8
0
  6
Continuous
 62
     7
100
AcDbLine
 10
50.9273211368
 20
32.5729987378
 30
0.0
 11
50.9582380905
 21
32.2149921858
 31
0.0
  0
LINE
  5
148
330
1F
100
AcDbEntity
  8
0
  6
Continuous
 62
     7
100
AcDbLine
 10
50.9582380905
 20
32.2149921858
 30
0.0
 11
50.9582380905
 21
30.1483870318
 31
0.0
  0
LINE
  5
149
330
1F
100
AcDbEntity
  8
0
  6
Continuous
 62
     7
100
AcDbLine
 10
50.9582380905
 20
30.1483870318
 30
0.0
 11
50.9054730397
 21
29.6729724739
 31
0.0
  0
LINE
  5
14A
330
1F
100
AcDbEntity
  8
0
  6
Continuous
 62
     7
100
AcDbLine
 10
50.9054730397
 20
29.6729724739
 30
0.0
 11
50.6953051073
 21
29.2435839674
 31
0.0
  0
LINE
  5
14B
330
1F
100
AcDbEntity
  8
0
  6
Continuous
 62
     7
100
AcDbLine
 10
50.6953051073
 20
29.2435839674
 30
0.0
 11
50.3953029564
 21
28.8693306228
 31
0.0
  0
LINE
  5
14C
330
1F
100
AcDbEntity
  8
0
  6
Continuous
 62
     7
100
AcDbLine
 10
50.3953029564
 20
28.8693306228
 30
0.0
 11
50.1918145941
 21
28.6565990681
 31
0.0
  0
LINE
  5
14D
330
1F
100
AcDbEntity
  8
0
  6
Continuous
 62
     7
100
AcDbLine
 10
50.1918145941
 20
28.6565990681
 30
0.0
 11
49.817697686
 21
28.3573495965
 31
0.0
  0
LINE
  5
14E
330
1F
100
AcDbEntity
  8
0
  6
Continuous
 62
     7
100
AcDbLine
 10
49.817697686
 20
28.3573495965
 30
0.0
 11
49.3869473679
 21
28.1475653829
 31
0.0
  0
LINE
  5
14F
330
1F
100
AcDbEntity
  8
0
  6
Continuous
 62
     7
100
AcDbLine
 10
49.3869473679
 20
28.1475653829
 30
0.0
 11
48.9217284258
 21
28.0325240114
 31
0.0
  0
LINE
  5
150
330
1F
100
AcDbEntity
  8
0
  6
Continuous
 62
     7
100
AcDbLine
 10
48.9217284258
 20
28.0325240114
 30
0.0
 11
48.5357935863
 21
28.0133511228
 31
0.0
  0
LINE
  5
151
330
1F
100
AcDbEntity
  8
0
  6
Continuous
 62
     7
100
AcDbLine
 10
48.5357935863
 20
28.0133511228
 30
0.0
 11
47.4272172748
 21
28.0133511228
 31
0.0
  0
LINE
  5
152
330
1F
100
AcDbEntity
  8
0
  6
Continuous
 62
     7
100
AcDbLine
 10
47.4272172748
 20
28.0133511228
 30
0.0
 11
47.1187942123
 21
27.6458737597
 31
0.0
  0
LINE
  5
153
330
1F
100
AcDbEntity
  8
0
  6
Continuous
 62
     7
100
AcDbLine
 10
47.1187942123
 20
27.6458737597
 30
0.0
 11
46.7744241682
 21
27.311631994
 31
0.0
  0
LINE
  5
154
330
1F
100
AcDbEntity
  8
0
  6
Continuous
 62
     7
100
AcDbLine
 10
46.7744241682
 20
27.311631994
 30
0.0
 11
46.4017483252
 21
27.0092600728
 31
0.0
  0
LINE
  5
155
330
1F
100
AcDbEntity
  8
0
  6
Continuous
 62
     7
100
AcDbLine
 10
46.4017483252
 20
27.0092600728
 30
0.0
 11
46.0036864607
 21
26.7412010142
 31
0.0
  0
LINE
  5
156
330
1F
100
AcDbEntity
  8
0
  6
Continuous
 62
     7
100
AcDbLine
 10
46.0036864607
 20
26.7412010142
 30
0.0
 11
45.5827229546
 21
26.5107951003
 31
0.0
  0
LINE
  5
157
330
1F
100
AcDbEntity
  8
0
  6
Continuous
 62
     7
100
AcDbLine
 10
45.5827229546
 20
26.5107951003
 30
0.0
 11
45.1417416986
 21
26.3215323197
 31
0.0
  0
LINE
  5
158
330
1F
100
AcDbEntity
  8
0
  6
Continuous
 62
     7
100
AcDbLine
 10
45.1417416986
 20
26.3215323197
 30
0.0
 11
44.6843196345
 21
26.1764810504
 31
0.0
  0
LINE
  5
159
330
1F
100
AcDbEntity
  8
0
  6
Continuous
 62
     7
100
AcDbLine
 10
44.6843196345
 20
26.1764810504
 30
0.0
 11
44.2147188141
 21
26.0777687528
 31
0.0
  0
LINE
  5
15A
330
1F
100
AcDbEntity
  8
0
  6
Continuous
 62
     7
100
AcDbLine
 10
44.2147188141
 20
26.0777687528
 30
0.0
 11
43.7376273066
 21
26.0261904039
 31
0.0
  0
LINE
  5
15B
330
1F
100
AcDbEntity
  8
0
  6
Continuous
 62
     7
100
AcDbLine
 10
43.7376273066
 20
26.0261904039
 30
0.0
 11
43.4445542438
 21
26.0176375503
 31
0.0
  0
LINE
  5
15C
330
1F
100
AcDbEntity
  8
0
  6
Continuous
 62
     7
100
AcDbLine
 10
43.4445542438
 20
26.0176375503
 30
0.0
 11
42.9652207736
 21
26.0405690411
 31
0.0
  0
LINE
  5
15D
330
1F
100
AcDbEntity
  8
0
  6
Continuous
 62
     7
100
AcDbLine
 10
42.9652207736
 20
26.0405690411
 30
0.0
 11
42.4904675524
 21
26.1104404609
 31
0.0
  0
LINE
  5
15E
330
1F
100
AcDbEntity
  8
0
  6
Continuous
 62
     7
100
AcDbLine
 10
42.4904675524
 20
26.1104404609
 30
0.0
 11
42.0251690302
 21
26.2277597276
 31
0.0
  0
LINE
  5
15F
330
1F
100
AcDbEntity
  8
0
  6
Continuous
 62
     7
100
AcDbLine
 10
42.0251690302
 20
26.2277597276
 30
0.0
 11
41.5741137948
 21
26.3915209719
 31
0.0
  0
LINE
  5
160
330
1F
100
AcDbEntity
  8
0
  6
Continuous
 62
     7
100
AcDbLine
 10
41.5741137948
 20
26.3915209719
 30
0.0
 11
41.1416059636
 21
26.5994010672
 31
0.0
  0
LINE
  5
161
330
1F
100
AcDbEntity
  8
0
  6
Continuous
 62
     7
100
AcDbLine
 10
41.1416059636
 20
26.5994010672
 30
0.0
 11
40.7312514662
 21
26.8481944625
 31
0.0
  0
LINE
  5
162
330
1F
100
AcDbEntity
  8
0
  6
Continuous
 62
     7
100
AcDbLine
 10
40.7312514662
 20
26.8481944625
 30
0.0
 11
40.3460296038
 21
27.1343828435
 31
0.0
  0
LINE
  5
163
330
1F
100
AcDbEntity
  8
0
  6
Continuous
 62
     7
100
AcDbLine
 10
40.3460296038
 20
27.1343828435
 30
0.0
 11
39.9887744598
 21
27.4548058122
 31
0.0
  0
LINE
  5
164
330
1F
100
AcDbEntity
  8
0
  6
Continuous
 62
     7
100
AcDbLine
 10
39.9887744598
 20
27.4548058122
 30
0.0
 11
39.6637830955
 21
27.8078640374
 31
0.0
  0
LINE
  5
165
330
1F
100
AcDbEntity
  8
0
  6
Continuous
 62
     7
100
AcDbLine
 10
39.6637830955
 20
27.8078640374
 30
0.0
 11
39.516636201
 21
27.9996649717
 31
0.0
  0
LINE
  5
166
330
1F
100
AcDbEntity
  8
0
  6
Continuous
 62
     7
100
AcDbLine
 10
39.516636201
 20
27.9996649717
 30
0.0
 11
38.2848843383
 21
27.9996649717
 31
0.0
  0
LINE
  5
167
330
1F
100
AcDbEntity
  8
0
  6
Continuous
 62
     7
100
AcDbLine
 10
38.2848843383
 20
27.9996649717
 30
0.0
 11
37.8108995203
 21
28.0653126662
 31
0.0
  0
LINE
  5
168
330
1F
100
AcDbEntity
  8
0
  6
Continuous
 62
     7
100
AcDbLine
 10
37.8108995203
 20
28.0653126662
 30
0.0
 11
37.3640267301
 21
28.2383600254
 31
0.0
  0
LINE
  5
169
330
1F
100
AcDbEntity
  8
0
  6
Continuous
 62
     7
100
AcDbLine
 10
37.3640267301
 20
28.2383600254
 30
0.0
 11
36.959449498
 21
28.4954858154
 31
0.0
  0
LINE
  5
16A
330
1F
100
AcDbEntity
  8
0
  6
Continuous
 62
     7
100
AcDbLine
 10
36.959449498
 20
28.4954858154
 30
0.0
 11
36.6836075505
 21
28.7387157821
 31
0.0
  0
LINE
  5
16B
330
1F
100
AcDbEntity
  8
0
  6
Continuous
 62
     7
100
AcDbLine
 10
36.6836075505
 20
28.7387157821
 30
0.0
 11
36.3744552368
 21
29.1051979561
 31
0.0
  0
LINE
  5
16C
330
1F
100
AcDbEntity
  8
0
  6
Continuous
 62
     7
100
AcDbLine
 10
36.3744552368
 20
29.1051979561
 30
0.0
 11
36.1388486726
 21
29.5225618461
 31
0.0
  0
LINE
  5
16D
330
1F
100
AcDbEntity
  8
0
  6
Continuous
 62
     7
100
AcDbLine
 10
36.1388486726
 20
29.5225618461
 30
0.0
 11
35.9955676093
 21
29.9797206092
 31
0.0
  0
LINE
  5
16E
330
1F
100
AcDbEntity
  8
0
  6
Continuous
 62
     7
100
AcDbLine
 10
35.9955676093
 20
29.9797206092
 30
0.0
 11
35.9582428912
 21
30.3263062268
 31
0.0
  0
LINE
  5
16F
330
1F
100
AcDbEntity
  8
0
  6
Continuous
 62
     7
100
AcDbLine
 10
35.9582428912
 20
30.3263062268
 30
0.0
 11
35.9582428912
 21
32.2149921858
 31
0.0
  0
LINE
  5
170
330
1F
100
AcDbEntity
  8
0
  6
Continuous
 62
     7
100
AcDbLine
 10
35.9582428912
 20
32.2149921858
 30
0.0
 11
36.0383639845
 21
32.6868313814
 31
0.0
  0
LINE
  5
171
330
1F
100
AcDbEntity
  8
0
  6
Continuous
 62
     7
100
AcDbLine
 10
36.0383639845
 20
32.6868313814
 30
0.0
 11
36.2201907733
 21
33.1303211537
 31
0.0
  0
LINE
  5
172
330
1F
100
AcDbEntity
  8
0
  6
Continuous
 62
     7
100
AcDbLine
 10
36.2201907733
 20
33.1303211537
 30
0.0
 11
36.4793891419
 21
33.5337042005
 31
0.0
  0
LINE
  5
173
330
1F
100
AcDbEntity
  8
0
  6
Continuous
 62
     7
100
AcDbLine
 10
36.4793891419
 20
33.5337042005
 30
0.0
 11
36.7520381135
 21
33.8436408916
 31
0.0
  0
LINE
  5
174
330
1F
100
AcDbEntity
  8
0
  6
Continuous
 62
     7
100
AcDbLine
 10
36.7520381135
 20
33.8436408916
 30
0.0
 11
37.1167540356
 21
34.1549891334
 31
0.0
  0
LINE
  5
175
330
1F
100
AcDbEntity
  8
0
  6
Continuous
 62
     7
100
AcDbLine
 10
37.1167540356
 20
34.1549891334
 30
0.0
 11
37.5309900418
 21
34.3960936749
 31
0.0
  0
LINE
  5
176
330
1F
100
AcDbEntity
  8
0
  6
Continuous
 62
     7
100
AcDbLine
 10
37.5309900418
 20
34.3960936749
 30
0.0
 11
37.9868582462
 21
34.542991216
 31
0.0
  0
LINE
  5
177
330
1F
100
AcDbEntity
  8
0
  6
Continuous
 62
     7
100
AcDbLine
 10
37.9868582462
 20
34.542991216
 30
0.0
 11
38.3396291344
 21
34.5690055509
 31
0.0
  0
LINE
  5
178
330
1F
100
AcDbEntity
  8
0
  6
Continuous
 62
     7
100
AcDbLine
 10
38.3396291344
 20
34.5690055509
 30
0.0
 11
39.4071468009
 21
34.5690055509
 31
0.0
  0
LINE
  5
179
330
1F
100
AcDbEntity
  8
0
  6
Continuous
 62
     7
100
AcDbLine
 10
39.4071468009
 20
34.5690055509
 30
0.0
 11
39.7101239583
 21
34.9409501789
 31
0.0
  0
LINE
  5
17A
330
1F
100
AcDbEntity
  8
0
  6
Continuous
 62
     7
100
AcDbLine
 10
39.7101239583
 20
34.9409501789
 30
0.0
 11
40.0509584747
 21
35.2787775203
 31
0.0
  0
LINE
  5
17B
330
1F
100
AcDbEntity
  8
0
  6
Continuous
 62
     7
100
AcDbLine
 10
40.0509584747
 20
35.2787775203
 30
0.0
 11
40.4214517578
 21
35.5838022932
 31
0.0
  0
LINE
  5
17C
330
1F
100
AcDbEntity
  8
0
  6
Continuous
 62
     7
100
AcDbLine
 10
40.4214517578
 20
35.5838022932
 30
0.0
 11
40.8183494729
 21
35.8535650976
 31
0.0
  0
LINE
  5
17D
330
1F
100
AcDbEntity
  8
0
  6
Continuous
 62
     7
100
AcDbLine
 10
40.8183494729
 20
35.8535650976
 30
0.0
 11
41.2388399585
 21
36.0848178319
 31
0.0
  0
LINE
  5
17E
330
1F
100
AcDbEntity
  8
0
  6
Continuous
 62
     7
100
AcDbLine
 10
41.2388399585
 20
36.0848178319
 30
0.0
 11
41.6797181179
 21
36.274309708
 31
0.0
  0
LINE
  5
17F
330
1F
100
AcDbEntity
  8
0
  6
Continuous
 62
     7
100
AcDbLine
 10
41.6797181179
 20
36.274309708
 30
0.0
 11
42.1371387251
 21
36.4193640417
 31
0.0
  0
LINE
  5
180
330
1F
100
AcDbEntity
  8
0
  6
Continuous
 62
     7
100
AcDbLine
 10
42.1371387251
 20
36.4193640417
 30
0.0
 11
42.6066848182
 21
36.5183540463
 31
0.0
  0
LINE
  5
181
330
1F
100
AcDbEntity
  8
0
  6
Continuous
 62
     7
100
AcDbLine
 10
42.6066848182
 20
36.5183540463
 30
0.0
 11
43.0836674234
 21
36.5710053672
 31
0.0
  0
LINE
  5
182
330
1F
100
AcDbEntity
  8
0
  6
Continuous
 62
     7
100
AcDbLine
 10
49.9098883709
 20
33.5155338941
 30
0.0
 11
49.5421148853
 21
33.8049940778
 31
0.0
  0
LINE
  5
183
330
1F
100
AcDbEntity
  8
0
  6
Continuous
 62
     7
100
AcDbLine
 10
49.5421148853
 20
33.8049940778
 30
0.0
 11
49.1083082436
 21
34.007108377
 31
0.0
  0
LINE
  5
184
330
1F
100
AcDbEntity
  8
0
  6
Continuous
 62
     7
100
AcDbLine
 10
49.1083082436
 20
34.007108377
 30
0.0
 11
48.6353181274
 21
34.0792862944
 31
0.0
  0
LINE
  5
185
330
1F
100
AcDbEntity
  8
0
  6
Continuous
 62
     7
100
AcDbLine
 10
48.6353181274
 20
34.0792862944
 30
0.0
 11
45.6253707428
 21
34.0792862944
 31
0.0
  0
LINE
  5
186
330
1F
100
AcDbEntity
  8
0
  6
Continuous
 62
     7
100
AcDbLine
 10
45.6253707428
 20
34.0792862944
 30
0.0
 11
45.2503754321
 21
34.030859864
 31
0.0
  0
LINE
  5
187
330
1F
100
AcDbEntity
  8
0
  6
Continuous
 62
     7
100
AcDbLine
 10
45.2503754321
 20
34.030859864
 30
0.0
 11
44.8147593851
 21
33.8336931987
 31
0.0
  0
LINE
  5
188
330
1F
100
AcDbEntity
  8
0
  6
Continuous
 62
     7
100
AcDbLine
 10
44.8147593851
 20
33.8336931987
 30
0.0
 11
44.4439414855
 21
33.5302406688
 31
0.0
  0
LINE
  5
189
330
1F
100
AcDbEntity
  8
0
  6
Continuous
 62
     7
100
AcDbLine
 10
44.4439414855
 20
33.5302406688
 30
0.0
 11
44.1512299693
 21
33.1913276927
 31
0.0
  0
LINE
  5
18A
330
1F
100
AcDbEntity
  8
0
  6
Continuous
 62
     7
100
AcDbLine
 10
44.1512299693
 20
33.1913276927
 30
0.0
 11
43.9133401255
 21
32.7756573297
 31
0.0
  0
LINE
  5
18B
330
1F
100
AcDbEntity
  8
0
  6
Continuous
 62
     7
100
AcDbLine
 10
43.9133401255
 20
32.7756573297
 30
0.0
 11
43.8115586221
 21
32.3095943058
 31
0.0
  0
LINE
  5
18C
330
1F
100
AcDbEntity
  8
0
  6
Continuous
 62
     7
100
AcDbLine
 10
43.8115586221
 20
32.3095943058
 30
0.0
 11
43.8115586221
 21
30.387933848
 31
0.0
  0
LINE
  5
18D
330
1F
100
AcDbEntity
  8
0
  6
Continuous
 62
     7
100
AcDbLine
 10
43.8115586221
 20
30.387933848
 30
0.0
 11
43.7873114161
 21
30.0818108305
 31
0.0
  0
LINE
  5
18E
330
1F
100
AcDbEntity
  8
0
  6
Continuous
 62
     7
100
AcDbLine
 10
43.7873114161
 20
30.0818108305
 30
0.0
 11
43.6584718159
 21
29.6204031604
 31
0.0
  0
LINE
  5
18F
330
1F
100
AcDbEntity
  8
0
  6
Continuous
 62
     7
100
AcDbLine
 10
43.6584718159
 20
29.6204031604
 30
0.0
 11
43.4377439995
 21
29.1948776378
 31
0.0
  0
LINE
  5
190
330
1F
100
AcDbEntity
  8
0
  6
Continuous
 62
     7
100
AcDbLine
 10
43.4377439995
 20
29.1948776378
 30
0.0
 11
43.147662263
 21
28.8129814168
 31
0.0
  0
LINE
  5
191
330
1F
100
AcDbEntity
  8
0
  6
Continuous
 62
     7
100
AcDbLine
 10
43.147662263
 20
28.8129814168
 30
0.0
 11
42.8017062908
 21
28.4809801649
 31
0.0
  0
LINE
  5
192
330
1F
100
AcDbEntity
  8
0
  6
Continuous
 62
     7
100
AcDbLine
 10
42.8017062908
 20
28.4809801649
 30
0.0
 11
48.6549267763
 21
28.4809801649
 31
0.0
  0
LINE
  5
193
330
1F
100
AcDbEntity
  8
0
  6
Continuous
 62
     7
100
AcDbLine
 10
48.6549267763
 20
28.4809801649
 30
0.0
 11
49.0868821672
 21
28.5473269932
 31
0.0
  0
LINE
  5
194
330
1F
100
AcDbEntity
  8
0
  6
Continuous
 62
     7
100
AcDbLine
 10
49.0868821672
 20
28.5473269932
 30
0.0
 11
49.515378149
 21
28.7603464078
 31
0.0
  0
LINE
  5
195
330
1F
100
AcDbEntity
  8
0
  6
Continuous
 62
     7
100
AcDbLine
 10
49.515378149
 20
28.7603464078
 30
0.0
 11
49.890279722
 21
29.0594393399
 31
0.0
  0
LINE
  5
196
330
1F
100
AcDbEntity
  8
0
  6
Continuous
 62
     7
100
AcDbLine
 10
49.890279722
 20
29.0594393399
 30
0.0
 11
49.9288332703
 21
29.0958139691
 31
0.0
  0
LINE
  5
197
330
1F
100
AcDbEntity
  8
0
  6
Continuous
 62
     7
100
AcDbLine
 10
49.9288332703
 20
29.0958139691
 30
0.0
 11
50.2262444575
 21
29.4708260662
 31
0.0
  0
LINE
  5
198
330
1F
100
AcDbEntity
  8
0
  6
Continuous
 62
     7
100
AcDbLine
 10
50.2262444575
 20
29.4708260662
 30
0.0
 11
50.4094969751
 21
29.912833479
 31
0.0
  0
LINE
  5
199
330
1F
100
AcDbEntity
  8
0
  6
Continuous
 62
     7
100
AcDbLine
 10
50.4094969751
 20
29.912833479
 30
0.0
 11
50.468738897
 21
30.387933848
 31
0.0
  0
LINE
  5
19A
330
1F
100
AcDbEntity
  8
0
  6
Continuous
 62
     7
100
AcDbLine
 10
50.468738897
 20
30.387933848
 30
0.0
 11
50.468738897
 21
32.2262570679
 31
0.0
  0
LINE
  5
19B
330
1F
100
AcDbEntity
  8
0
  6
Continuous
 62
     7
100
AcDbLine
 10
50.468738897
 20
32.2262570679
 30
0.0
 11
50.3987356713
 21
32.6994142099
 31
0.0
  0
LINE
  5
19C
330
1F
100
AcDbEntity
  8
0
  6
Continuous
 62
     7
100
AcDbLine
 10
50.3987356713
 20
32.6994142099
 30
0.0
 11
50.2024942996
 21
33.1360990062
 31
0.0
  0
LINE
  5
19D
330
1F
100
AcDbEntity
  8
0
  6
Continuous
 62
     7
100
AcDbLine
 10
50.2024942996
 20
33.1360990062
 30
0.0
 11
49.9098883709
 21
33.5155338941
 31
0.0
  0
LINE
  5
19E
330
1F
100
AcDbEntity
  8
0
  6
Continuous
 62
     7
100
AcDbLine
 10
42.483063922
 20
29.7408442098
 30
0.0
 11
42.483063922
 21
32.1184087309
 31
0.0
  0
LINE
  5
19F
330
1F
100
AcDbEntity
  8
0
  6
Continuous
 62
     7
100
AcDbLine
 10
42.483063922
 20
32.1184087309
 30
0.0
 11
41.6742016822
 21
32.1184087309
 31
0.0
  0
LINE
  5
1A0
330
1F
100
AcDbEntity
  8
0
  6
Continuous
 62
     7
100
AcDbLine
 10
41.6742016822
 20
32.1184087309
 30
0.0
 11
41.6742016822
 21
29.7408442098
 31
0.0
  0
LINE
  5
1A1
330
1F
100
AcDbEntity
  8
0
  6
Continuous
 62
     7
100
AcDbLine
 10
41.6742016822
 20
29.7408442098
 30
0.0
 11
42.483063922
 21
29.7408442098
 31
0.0
  0
LINE
  5
1A2
330
1F
100
AcDbEntity
  8
0
  6
Continuous
 62
     7
100
AcDbLine
 10
42.0957903219
 20
32.3733230868
 30
0.0
 11
42.2477220715
 21
32.392163028
 31
0.0
  0
LINE
  5
1A3
330
1F
100
AcDbEntity
  8
0
  6
Continuous
 62
     7
100
AcDbLine
 10
42.2477220715
 20
32.392163028
 30
0.0
 11
42.4222068984
 21
32.4699903293
 31
0.0
  0
LINE
  5
1A4
330
1F
100
AcDbEntity
  8
0
  6
Continuous
 62
     7
100
AcDbLine
 10
42.4222068984
 20
32.4699903293
 30
0.0
 11
42.5541502754
 21
32.6074415662
 31
0.0
  0
LINE
  5
1A5
330
1F
100
AcDbEntity
  8
0
  6
Continuous
 62
     7
100
AcDbLine
 10
42.5541502754
 20
32.6074415662
 30
0.0
 11
42.6056188417
 21
32.7900094683
 31
0.0
  0
LINE
  5
1A6
330
1F
100
AcDbEntity
  8
0
  6
Continuous
 62
     7
100
AcDbLine
 10
42.6056188417
 20
32.7900094683
 30
0.0
 11
42.5722265971
 21
32.9385612514
 31
0.0
  0
LINE
  5
1A7
330
1F
100
AcDbEntity
  8
0
  6
Continuous
 62
     7
100
AcDbLine
 10
42.5722265971
 20
32.9385612514
 30
0.0
 11
42.453165794
 21
33.0870973373
 31
0.0
  0
LINE
  5
1A8
330
1F
100
AcDbEntity
  8
0
  6
Continuous
 62
     7
100
AcDbLine
 10
42.453165794
 20
33.0870973373
 30
0.0
 11
42.2847203335
 21
33.1771132459
 31
0.0
  0
LINE
  5
1A9
330
1F
100
AcDbEntity
  8
0
  6
Continuous
 62
     7
100
AcDbLine
 10
42.2847203335
 20
33.1771132459
 30
0.0
 11
42.0957903219
 21
33.2066958497
 31
0.0
  0
LINE
  5
1AA
330
1F
100
AcDbEntity
  8
0
  6
Continuous
 62
     7
100
AcDbLine
 10
42.0957903219
 20
33.2066958497
 30
0.0
 11
41.9438590225
 21
33.1878559932
 31
0.0
  0
LINE
  5
1AB
330
1F
100
AcDbEntity
  8
0
  6
Continuous
 62
     7
100
AcDbLine
 10
41.9438590225
 20
33.1878559932
 30
0.0
 11
41.7693741995
 21
33.1100286925
 31
0.0
  0
LINE
  5
1AC
330
1F
100
AcDbEntity
  8
0
  6
Continuous
 62
     7
100
AcDbLine
 10
41.7693741995
 20
33.1100286925
 30
0.0
 11
41.6374308929
 21
32.97257739
 31
0.0
  0
LINE
  5
1AD
330
1F
100
AcDbEntity
  8
0
  6
Continuous
 62
     7
100
AcDbLine
 10
41.6374308929
 20
32.97257739
 30
0.0
 11
41.5859623781
 21
32.7900094683
 31
0.0
  0
LINE
  5
1AE
330
1F
100
AcDbEntity
  8
0
  6
Continuous
 62
     7
100
AcDbLine
 10
41.5859623781
 20
32.7900094683
 30
0.0
 11
41.6193543682
 21
32.6414579891
 31
0.0
  0
LINE
  5
1AF
330
1F
100
AcDbEntity
  8
0
  6
Continuous
 62
     7
100
AcDbLine
 10
41.6193543682
 20
32.6414579891
 30
0.0
 11
41.7384149131
 21
32.4929217047
 31
0.0
  0
LINE
  5
1B0
330
1F
100
AcDbEntity
  8
0
  6
Continuous
 62
     7
100
AcDbLine
 10
41.7384149131
 20
32.4929217047
 30
0.0
 11
41.9068603115
 21
32.4029056922
 31
0.0
  0
LINE
  5
1B1
330
1F
100
AcDbEntity
  8
0
  6
Continuous
 62
     7
100
AcDbLine
 10
41.9068603115
 20
32.4029056922
 30
0.0
 11
42.0957903219
 21
32.3733230868
 31
0.0
  0
LINE
  5
1B2
330
1F
100
AcDbEntity
  8
0
  6
Continuous
 62
     7
100
AcDbLine
 10
38.4764904524
 20
31.2022183553
 30
0.0
 11
38.1980180492
 21
33.0224737512
 31
0.0
  0
LINE
  5
1B3
330
1F
100
AcDbEntity
  8
0
  6
Continuous
 62
     7
100
AcDbLine
 10
38.1980180492
 20
33.0224737512
 30
0.0
 11
37.2700280857
 21
33.0224737512
 31
0.0
  0
LINE
  5
1B4
330
1F
100
AcDbEntity
  8
0
  6
Continuous
 62
     7
100
AcDbLine
 10
37.2700280857
 20
33.0224737512
 30
0.0
 11
38.0316913127
 21
29.7378028856
 31
0.0
  0
LINE
  5
1B5
330
1F
100
AcDbEntity
  8
0
  6
Continuous
 62
     7
100
AcDbLine
 10
38.0316913127
 20
29.7378028856
 30
0.0
 11
38.8733876796
 21
29.7378028856
 31
0.0
  0
LINE
  5
1B6
330
1F
100
AcDbEntity
  8
0
  6
Continuous
 62
     7
100
AcDbLine
 10
38.8733876796
 20
29.7378028856
 30
0.0
 11
39.2497562563
 21
31.6401744195
 31
0.0
  0
LINE
  5
1B7
330
1F
100
AcDbEntity
  8
0
  6
Continuous
 62
     7
100
AcDbLine
 10
39.2497562563
 20
31.6401744195
 30
0.0
 11
39.612438682
 21
29.7378028856
 31
0.0
  0
LINE
  5
1B8
330
1F
100
AcDbEntity
  8
0
  6
Continuous
 62
     7
100
AcDbLine
 10
39.612438682
 20
29.7378028856
 30
0.0
 11
40.4746650434
 21
29.7378028856
 31
0.0
  0
LINE
  5
1B9
330
1F
100
AcDbEntity
  8
0
  6
Continuous
 62
     7
100
AcDbLine
 10
40.4746650434
 20
29.7378028856
 30
0.0
 11
41.2410877717
 21
33.0224737512
 31
0.0
  0
LINE
  5
1BA
330
1F
100
AcDbEntity
  8
0
  6
Continuous
 62
     7
100
AcDbLine
 10
41.2410877717
 20
33.0224737512
 30
0.0
 11
40.3241175743
 21
33.0224737512
 31
0.0
  0
LINE
  5
1BB
330
1F
100
AcDbEntity
  8
0
  6
Continuous
 62
     7
100
AcDbLine
 10
40.3241175743
 20
33.0224737512
 30
0.0
 11
40.0572378217
 21
31.2227477738
 31
0.0
  0
LINE
  5
1BC
330
1F
100
AcDbEntity
  8
0
  6
Continuous
 62
     7
100
AcDbLine
 10
40.0572378217
 20
31.2227477738
 30
0.0
 11
39.6822947663
 21
33.0224737512
 31
0.0
  0
LINE
  5
1BD
330
1F
100
AcDbEntity
  8
0
  6
Continuous
 62
     7
100
AcDbLine
 10
39.6822947663
 20
33.0224737512
 30
0.0
 11
38.8514495251
 21
33.0224737512
 31
0.0
  0
LINE
  5
1BE
330
1F
100
AcDbEntity
  8
0
  6
Continuous
 62
     7
100
AcDbLine
 10
38.8514495251
 20
33.0224737512
 30
0.0
 11
38.4764904524
 21
31.2022183553
 31
0.0
  0
LINE
  5
1BF
330
1F
100
AcDbEntity
  8
0
  6
Continuous
 62
     7
100
AcDbLine
 10
44.9537700054
 20
33.0302170495
 30
0.0
 11
44.9586724557
 21
29.7555509845
 31
0.0
  0
LINE
  5
1C0
330
1F
100
AcDbEntity
  8
0
  6
Continuous
 62
     7
100
AcDbLine
 10
44.9586724557
 20
29.7555509845
 30
0.0
 11
45.865578324
 21
29.7555509845
 31
0.0
  0
LINE
  5
1C1
330
1F
100
AcDbEntity
  8
0
  6
Continuous
 62
     7
100
AcDbLine
 10
45.865578324
 20
29.7555509845
 30
0.0
 11
45.865578324
 21
30.7457940907
 31
0.0
  0
LINE
  5
1C2
330
1F
100
AcDbEntity
  8
0
  6
Continuous
 62
     7
100
AcDbLine
 10
45.865578324
 20
30.7457940907
 30
0.0
 11
47.5911507566
 21
30.7457940907
 31
0.0
  0
LINE
  5
1C3
330
1F
100
AcDbEntity
  8
0
  6
Continuous
 62
     7
100
AcDbLine
 10
47.5911507566
 20
30.7457940907
 30
0.0
 11
47.5911507566
 21
31.4860258674
 31
0.0
  0
LINE
  5
1C4
330
1F
100
AcDbEntity
  8
0
  6
Continuous
 62
     7
100
AcDbLine
 10
47.5911507566
 20
31.4860258674
 30
0.0
 11
45.8606758738
 21
31.4860258674
 31
0.0
  0
LINE
  5
1C5
330
1F
100
AcDbEntity
  8
0
  6
Continuous
 62
     7
100
AcDbLine
 10
45.8606758738
 20
31.4860258674
 30
0.0
 11
45.8606758738
 21
32.2605722995
 31
0.0
  0
LINE
  5
1C6
330
1F
100
AcDbEntity
  8
0
  6
Continuous
 62
     7
100
AcDbLine
 10
45.8606758738
 20
32.2605722995
 30
0.0
 11
47.8166515631
 21
32.2605722995
 31
0.0
  0
LINE
  5
1C7
330
1F
100
AcDbEntity
  8
0
  6
Continuous
 62
     7
100
AcDbLine
 10
47.8166515631
 20
32.2605722995
 30
0.0
 11
47.8166515631
 21
33.0302170495
 31
0.0
  0
LINE
  5
1C8
330
1F
100
AcDbEntity
  8
0
  6
Continuous
 62
     7
100
AcDbLine
 10
47.8166515631
 20
33.0302170495
 30
0.0
 11
44.9537700054
 21
33.0302170495
 31
0.0
  0
LINE
  5
1C9
330
1F
100
AcDbEntity
  8
0
  6
Continuous
 62
     7
100
AcDbLine
 10
48.9119122106
 20
32.3733783457
 30
0.0
 11
48.9833398648
 21
32.3896365518
 31
0.0
  0
LINE
  5
1CA
330
1F
100
AcDbEntity
  8
0
  6
Continuous
 62
     7
100
AcDbLine
 10
48.9833398648
 20
32.3896365518
 30
0.0
 11
49.1515052279
 21
32.4791073992
 31
0.0
  0
LINE
  5
1CB
330
1F
100
AcDbEntity
  8
0
  6
Continuous
 62
     7
100
AcDbLine
 10
49.1515052279
 20
32.4791073992
 30
0.0
 11
49.2655909544
 21
32.6316554235
 31
0.0
  0
LINE
  5
1CC
330
1F
100
AcDbEntity
  8
0
  6
Continuous
 62
     7
100
AcDbLine
 10
49.2655909544
 20
32.6316554235
 30
0.0
 11
49.3014176426
 21
32.8184616119
 31
0.0
  0
LINE
  5
1CD
330
1F
100
AcDbEntity
  8
0
  6
Continuous
 62
     7
100
AcDbLine
 10
49.3014176426
 20
32.8184616119
 30
0.0
 11
49.2398046952
 21
32.9976749899
 31
0.0
  0
LINE
  5
1CE
330
1F
100
AcDbEntity
  8
0
  6
Continuous
 62
     7
100
AcDbLine
 10
49.2398046952
 20
32.9976749899
 30
0.0
 11
49.2029047316
 21
33.0416589805
 31
0.0
  0
LINE
  5
1CF
330
1F
100
AcDbEntity
  8
0
  6
Continuous
 62
     7
100
AcDbLine
 10
49.2029047316
 20
33.0416589805
 30
0.0
 11
49.0477773122
 21
33.1533347047
 31
0.0
  0
LINE
  5
1D0
330
1F
100
AcDbEntity
  8
0
  6
Continuous
 62
     7
100
AcDbLine
 10
49.0477773122
 20
33.1533347047
 30
0.0
 11
48.8650213952
 21
33.2095900667
 31
0.0
  0
LINE
  5
1D1
330
1F
100
AcDbEntity
  8
0
  6
Continuous
 62
     7
100
AcDbLine
 10
48.8650213952
 20
33.2095900667
 30
0.0
 11
48.6738289751
 21
33.206265395
 31
0.0
  0
LINE
  5
1D2
330
1F
100
AcDbEntity
  8
0
  6
Continuous
 62
     7
100
AcDbLine
 10
48.6738289751
 20
33.206265395
 30
0.0
 11
48.4941032068
 21
33.1413816825
 31
0.0
  0
LINE
  5
1D3
330
1F
100
AcDbEntity
  8
0
  6
Continuous
 62
     7
100
AcDbLine
 10
48.4941032068
 20
33.1413816825
 30
0.0
 11
48.3577132806
 21
33.0276556009
 31
0.0
  0
LINE
  5
1D4
330
1F
100
AcDbEntity
  8
0
  6
Continuous
 62
     7
100
AcDbLine
 10
48.3577132806
 20
33.0276556009
 30
0.0
 11
48.2676883981
 21
32.85987264
 31
0.0
  0
LINE
  5
1D5
330
1F
100
AcDbEntity
  8
0
  6
Continuous
 62
     7
100
AcDbLine
 10
48.2676883981
 20
32.85987264
 30
0.0
 11
48.276254617
 21
32.6708916731
 31
0.0
  0
LINE
  5
1D6
330
1F
100
AcDbEntity
  8
0
  6
Continuous
 62
     7
100
AcDbLine
 10
48.276254617
 20
32.6708916731
 30
0.0
 11
48.3766715339
 21
32.5176675065
 31
0.0
  0
LINE
  5
1D7
330
1F
100
AcDbEntity
  8
0
  6
Continuous
 62
     7
100
AcDbLine
 10
48.3766715339
 20
32.5176675065
 30
0.0
 11
48.535140774
 21
32.4112537111
 31
0.0
  0
LINE
  5
1D8
330
1F
100
AcDbEntity
  8
0
  6
Continuous
 62
     7
100
AcDbLine
 10
48.535140774
 20
32.4112537111
 30
0.0
 11
48.7206540562
 21
32.3648247896
 31
0.0
  0
LINE
  5
1D9
330
1F
100
AcDbEntity
  8
0
  6
Continuous
 62
     7
100
AcDbLine
 10
48.7206540562
 20
32.3648247896
 30
0.0
 11
48.9119122106
 21
32.3733783457
 31
0.0
  0
LINE
  5
1DA
330
1F
100
AcDbEntity
  8
0
  6
Continuous
 62
     7
100
AcDbLine
 10
49.1700001306
 20
29.7258578437
 30
0.0
 11
49.1700001306
 21
30.9321563305
 31
0.0
  0
LINE
  5
1DB
330
1F
100
AcDbEntity
  8
0
  6
Continuous
 62
     7
100
AcDbLine
 10
49.1700001306
 20
30.9321563305
 30
0.0
 11
49.1700001306
 21
32.1384548174
 31
0.0
  0
LINE
  5
1DC
330
1F
100
AcDbEntity
  8
0
  6
Continuous
 62
     7
100
AcDbLine
 10
49.1700001306
 20
32.1384548174
 30
0.0
 11
48.7540351947
 21
32.1384548174
 31
0.0
  0
LINE
  5
1DD
330
1F
100
AcDbEntity
  8
0
  6
Continuous
 62
     7
100
AcDbLine
 10
48.7540351947
 20
32.1384548174
 30
0.0
 11
48.3380700669
 21
32.1384548174
 31
0.0
  0
LINE
  5
1DE
330
1F
100
AcDbEntity
  8
0
  6
Continuous
 62
     7
100
AcDbLine
 10
48.3380700669
 20
32.1384548174
 30
0.0
 11
48.3380700669
 21
30.9321563305
 31
0.0
  0
LINE
  5
1DF
330
1F
100
AcDbEntity
  8
0
  6
Continuous
 62
     7
100
AcDbLine
 10
48.3380700669
 20
30.9321563305
 30
0.0
 11
48.3380700669
 21
29.7258578437
 31
0.0
  0
LINE
  5
1E0
330
1F
100
AcDbEntity
  8
0
  6
Continuous
 62
     7
100
AcDbLine
 10
48.3380700669
 20
29.7258578437
 30
0.0
 11
48.7540351947
 21
29.7258578437
 31
0.0
  0
LINE
  5
1E1
330
1F
100
AcDbEntity
  8
0
  6
Continuous
 62
     7
100
AcDbLine
 10
48.7540351947
 20
29.7258578437
 30
0.0
 11
49.1700001306
 21
29.7258578437
 31
0.0
  0
LINE
  5
1E2
330
1F
100
AcDbEntity
  8
0
  6
Continuous
 62
     7
100
AcDbLine
 10
43.4034961748
 20
36.5808662929
 30
0.0
 11
43.8829001865
 21
36.5590422232
 31
0.0
  0
LINE
  5
1E3
330
1F
100
AcDbEntity
  8
0
  6
Continuous
 62
     7
100
AcDbLine
 10
43.8829001865
 20
36.5590422232
 30
0.0
 11
44.3582537354
 21
36.4931756624
 31
0.0
  0
LINE
  5
1E4
330
1F
100
AcDbEntity
  8
0
  6
Continuous
 62
     7
100
AcDbLine
 10
44.3582537354
 20
36.4931756624
 30
0.0
 11
44.825469436
 21
36.3835863178
 31
0.0
  0
LINE
  5
1E5
330
1F
100
AcDbEntity
  8
0
  6
Continuous
 62
     7
100
AcDbLine
 10
44.825469436
 20
36.3835863178
 30
0.0
 11
45.2807103755
 21
36.2317235638
 31
0.0
  0
LINE
  5
1E6
330
1F
100
AcDbEntity
  8
0
  6
Continuous
 62
     7
100
AcDbLine
 10
45.2807103755
 20
36.2317235638
 30
0.0
 11
45.7206269786
 21
36.0399166823
 31
0.0
  0
LINE
  5
1E7
330
1F
100
AcDbEntity
  8
0
  6
Continuous
 62
     7
100
AcDbLine
 10
45.7206269786
 20
36.0399166823
 30
0.0
 11
46.1424454596
 21
35.811013138
 31
0.0
  0
LINE
  5
1E8
330
1F
100
AcDbEntity
  8
0
  6
Continuous
 62
     7
100
AcDbLine
 10
46.1424454596
 20
35.811013138
 30
0.0
 11
46.5438771804
 21
35.5479728927
 31
0.0
  0
LINE
  5
1E9
330
1F
100
AcDbEntity
  8
0
  6
Continuous
 62
     7
100
AcDbLine
 10
46.5438771804
 20
35.5479728927
 30
0.0
 11
46.9228047567
 21
35.2534282392
 31
0.0
  0
LINE
  5
1EA
330
1F
100
AcDbEntity
  8
0
  6
Continuous
 62
     7
100
AcDbLine
 10
46.9228047567
 20
35.2534282392
 30
0.0
 11
47.2764787678
 21
34.929009149
 31
0.0
  0
LINE
  5
1EB
330
1F
100
AcDbEntity
  8
0
  6
Continuous
 62
     7
100
AcDbLine
 10
47.2764787678
 20
34.929009149
 30
0.0
 11
47.5777647439
 21
34.5963780449
 31
0.0
  0
LINE
  5
1EC
330
1F
100
AcDbEntity
  8
0
  6
Continuous
 62
     7
100
AcDbLine
 10
47.5777647439
 20
34.5963780449
 30
0.0
 11
48.7821435364
 21
34.5963780449
 31
0.0
  0
LINE
  5
1ED
330
1F
100
AcDbEntity
  8
0
  6
Continuous
 62
     7
100
AcDbLine
 10
48.7821435364
 20
34.5963780449
 30
0.0
 11
49.2520916436
 21
34.5098070066
 31
0.0
  0
LINE
  5
1EE
330
1F
100
AcDbEntity
  8
0
  6
Continuous
 62
     7
100
AcDbLine
 10
49.2520916436
 20
34.5098070066
 30
0.0
 11
49.4683250788
 21
34.4182364827
 31
0.0
  0
LINE
  5
1EF
330
1F
100
AcDbEntity
  8
0
  6
Continuous
 62
     7
100
AcDbLine
 10
49.4683250788
 20
34.4182364827
 30
0.0
 11
49.882520713
 21
34.1764318537
 31
0.0
  0
LINE
  5
1F0
330
1F
100
AcDbEntity
  8
0
  6
Continuous
 62
     7
100
AcDbLine
 10
49.882520713
 20
34.1764318537
 30
0.0
 11
50.2428524951
 21
33.8606023596
 31
0.0
  0
LINE
  5
1F1
330
1F
100
AcDbEntity
  8
0
  6
Continuous
 62
     7
100
AcDbLine
 10
50.2428524951
 20
33.8606023596
 30
0.0
 11
50.5364340963
 21
33.4814489624
 31
0.0
  0
LINE
  5
1F2
330
1F
100
AcDbEntity
  8
0
  6
Continuous
 62
     7
100
AcDbLine
 10
50.5364340963
 20
33.4814489624
 30
0.0
 11
50.5558220063
 21
33.4516735746
 31
0.0
  0
LINE
  5
1F3
330
1F
100
AcDbEntity
  8
0
  6
Continuous
 62
     7
100
AcDbLine
 10
50.5558220063
 20
33.4516735746
 30
0.0
 11
50.7847096914
 21
33.0302674022
 31
0.0
  0
LINE
  5
1F4
330
1F
100
AcDbEntity
  8
0
  6
Continuous
 62
     7
100
AcDbLine
 10
50.7847096914
 20
33.0302674022
 30
0.0
 11
50.9273211368
 21
32.5729987378
 31
0.0
  0
LINE
  5
1F5
330
1F
100
AcDbEntity
  8
0
  6
Continuous
 62
     7
100
AcDbLine
 10
50.9273211368
 20
32.5729987378
 30
0.0
 11
50.9582380905
 21
32.2149921858
 31
0.0
  0
LINE
  5
1F6
330
1F
100
AcDbEntity
  8
0
  6
Continuous
 62
     7
100
AcDbLine
 10
50.9582380905
 20
32.2149921858
 30
0.0
 11
50.9582380905
 21
30.1483870318
 31
0.0
  0
LINE
  5
1F7
330
1F
100
AcDbEntity
  8
0
  6
Continuous
 62
     7
100
AcDbLine
 10
50.9582380905
 20
30.1483870318
 30
0.0
 11
50.9054730397
 21
29.6729724739
 31
0.0
  0
LINE
  5
1F8
330
1F
100
AcDbEntity
  8
0
  6
Continuous
 62
     7
100
AcDbLine
 10
50.9054730397
 20
29.6729724739
 30
0.0
 11
50.6953051073
 21
29.2435839674
 31
0.0
  0
LINE
  5
1F9
330
1F
100
AcDbEntity
  8
0
  6
Continuous
 62
     7
100
AcDbLine
 10
50.6953051073
 20
29.2435839674
 30
0.0
 11
50.3953029564
 21
28.8693306228
 31
0.0
  0
LINE
  5
1FA
330
1F
100
AcDbEntity
  8
0
  6
Continuous
 62
     7
100
AcDbLine
 10
50.3953029564
 20
28.8693306228
 30
0.0
 11
50.1918145941
 21
28.6565990681
 31
0.0
  0
LINE
  5
1FB
330
1F
100
AcDbEntity
  8
0
  6
Continuous
 62
     7
100
AcDbLine
 10
50.1918145941
 20
28.6565990681
 30
0.0
 11
49.817697686
 21
28.3573495965
 31
0.0
  0
LINE
  5
1FC
330
1F
100
AcDbEntity
  8
0
  6
Continuous
 62
     7
100
AcDbLine
 10
49.817697686
 20
28.3573495965
 30
0.0
 11
49.3869473679
 21
28.1475653829
 31
0.0
  0
LINE
  5
1FD
330
1F
100
AcDbEntity
  8
0
  6
Continuous
 62
     7
100
AcDbLine
 10
49.3869473679
 20
28.1475653829
 30
0.0
 11
48.9217284258
 21
28.0325240114
 31
0.0
  0
LINE
  5
1FE
330
1F
100
AcDbEntity
  8
0
  6
Continuous
 62
     7
100
AcDbLine
 10
48.9217284258
 20
28.0325240114
 30
0.0
 11
48.5357935863
 21
28.0133511228
 31
0.0
  0
LINE
  5
1FF
330
1F
100
AcDbEntity
  8
0
  6
Continuous
 62
     7
100
AcDbLine
 10
48.5357935863
 20
28.0133511228
 30
0.0
 11
47.4272172748
 21
28.0133511228
 31
0.0
  0
LINE
  5
200
330
1F
100
AcDbEntity
  8
0
  6
Continuous
 62
     7
100
AcDbLine
 10
47.4272172748
 20
28.0133511228
 30
0.0
 11
47.1187942123
 21
27.6458737597
 31
0.0
  0
LINE
  5
201
330
1F
100
AcDbEntity
  8
0
  6
Continuous
 62
     7
100
AcDbLine
 10
47.1187942123
 20
27.6458737597
 30
0.0
 11
46.7744241682
 21
27.311631994
 31
0.0
  0
LINE
  5
202
330
1F
100
AcDbEntity
  8
0
  6
Continuous
 62
     7
100
AcDbLine
 10
46.7744241682
 20
27.311631994
 30
0.0
 11
46.4017483252
 21
27.0092600728
 31
0.0
  0
LINE
  5
203
330
1F
100
AcDbEntity
  8
0
  6
Continuous
 62
     7
100
AcDbLine
 10
46.4017483252
 20
27.0092600728
 30
0.0
 11
46.0036864607
 21
26.7412010142
 31
0.0
  0
LINE
  5
204
330
1F
100
AcDbEntity
  8
0
  6
Continuous
 62
     7
100
AcDbLine
 10
46.0036864607
 20
26.7412010142
 30
0.0
 11
45.5827229546
 21
26.5107951003
 31
0.0
  0
LINE
  5
205
330
1F
100
AcDbEntity
  8
0
  6
Continuous
 62
     7
100
AcDbLine
 10
45.5827229546
 20
26.5107951003
 30
0.0
 11
45.1417416986
 21
26.3215323197
 31
0.0
  0
LINE
  5
206
330
1F
100
AcDbEntity
  8
0
  6
Continuous
 62
     7
100
AcDbLine
 10
45.1417416986
 20
26.3215323197
 30
0.0
 11
44.6843196345
 21
26.1764810504
 31
0.0
  0
LINE
  5
207
330
1F
100
AcDbEntity
  8
0
  6
Continuous
 62
     7
100
AcDbLine
 10
44.6843196345
 20
26.1764810504
 30
0.0
 11
44.2147188141
 21
26.0777687528
 31
0.0
  0
LINE
  5
208
330
1F
100
AcDbEntity
  8
0
  6
Continuous
 62
     7
100
AcDbLine
 10
44.2147188141
 20
26.0777687528
 30
0.0
 11
43.7376273066
 21
26.0261904039
 31
0.0
  0
LINE
  5
209
330
1F
100
AcDbEntity
  8
0
  6
Continuous
 62
     7
100
AcDbLine
 10
43.7376273066
 20
26.0261904039
 30
0.0
 11
43.4445542438
 21
26.0176375503
 31
0.0
  0
LINE
  5
20A
330
1F
100
AcDbEntity
  8
0
  6
Continuous
 62
     7
100
AcDbLine
 10
43.4445542438
 20
26.0176375503
 30
0.0
 11
42.9652207736
 21
26.0405690411
 31
0.0
  0
LINE
  5
20B
330
1F
100
AcDbEntity
  8
0
  6
Continuous
 62
     7
100
AcDbLine
 10
42.9652207736
 20
26.0405690411
 30
0.0
 11
42.4904675524
 21
26.1104404609
 31
0.0
  0
LINE
  5
20C
330
1F
100
AcDbEntity
  8
0
  6
Continuous
 62
     7
100
AcDbLine
 10
42.4904675524
 20
26.1104404609
 30
0.0
 11
42.0251690302
 21
26.2277597276
 31
0.0
  0
LINE
  5
20D
330
1F
100
AcDbEntity
  8
0
  6
Continuous
 62
     7
100
AcDbLine
 10
42.0251690302
 20
26.2277597276
 30
0.0
 11
41.5741137948
 21
26.3915209719
 31
0.0
  0
LINE
  5
20E
330
1F
100
AcDbEntity
  8
0
  6
Continuous
 62
     7
100
AcDbLine
 10
41.5741137948
 20
26.3915209719
 30
0.0
 11
41.1416059636
 21
26.5994010672
 31
0.0
  0
LINE
  5
20F
330
1F
100
AcDbEntity
  8
0
  6
Continuous
 62
     7
100
AcDbLine
 10
41.1416059636
 20
26.5994010672
 30
0.0
 11
40.7312514662
 21
26.8481944625
 31
0.0
  0
LINE
  5
210
330
1F
100
AcDbEntity
  8
0
  6
Continuous
 62
     7
100
AcDbLine
 10
40.7312514662
 20
26.8481944625
 30
0.0
 11
40.3460296038
 21
27.1343828435
 31
0.0
  0
LINE
  5
211
330
1F
100
AcDbEntity
  8
0
  6
Continuous
 62
     7
100
AcDbLine
 10
40.3460296038
 20
27.1343828435
 30
0.0
 11
39.9887744598
 21
27.4548058122
 31
0.0
  0
LINE
  5
212
330
1F
100
AcDbEntity
  8
0
  6
Continuous
 62
     7
100
AcDbLine
 10
39.9887744598
 20
27.4548058122
 30
0.0
 11
39.6637830955
 21
27.8078640374
 31
0.0
  0
LINE
  5
213
330
1F
100
AcDbEntity
  8
0
  6
Continuous
 62
     7
100
AcDbLine
 10
39.6637830955
 20
27.8078640374
 30
0.0
 11
39.516636201
 21
27.9996649717
 31
0.0
  0
LINE
  5
214
330
1F
100
AcDbEntity
  8
0
  6
Continuous
 62
     7
100
AcDbLine
 10
39.516636201
 20
27.9996649717
 30
0.0
 11
38.2848843383
 21
27.9996649717
 31
0.0
  0
LINE
  5
215
330
1F
100
AcDbEntity
  8
0
  6
Continuous
 62
     7
100
AcDbLine
 10
38.2848843383
 20
27.9996649717
 30
0.0
 11
37.8108995203
 21
28.0653126662
 31
0.0
  0
LINE
  5
216
330
1F
100
AcDbEntity
  8
0
  6
Continuous
 62
     7
100
AcDbLine
 10
37.8108995203
 20
28.0653126662
 30
0.0
 11
37.3640267301
 21
28.2383600254
 31
0.0
  0
LINE
  5
217
330
1F
100
AcDbEntity
  8
0
  6
Continuous
 62
     7
100
AcDbLine
 10
37.3640267301
 20
28.2383600254
 30
0.0
 11
36.959449498
 21
28.4954858154
 31
0.0
  0
LINE
  5
218
330
1F
100
AcDbEntity
  8
0
  6
Continuous
 62
     7
100
AcDbLine
 10
36.959449498
 20
28.4954858154
 30
0.0
 11
36.6836075505
 21
28.7387157821
 31
0.0
  0
LINE
  5
219
330
1F
100
AcDbEntity
  8
0
  6
Continuous
 62
     7
100
AcDbLine
 10
36.6836075505
 20
28.7387157821
 30
0.0
 11
36.3744552368
 21
29.1051979561
 31
0.0
  0
LINE
  5
21A
330
1F
100
AcDbEntity
  8
0
  6
Continuous
 62
     7
100
AcDbLine
 10
36.3744552368
 20
29.1051979561
 30
0.0
 11
36.1388486726
 21
29.5225618461
 31
0.0
  0
LINE
  5
21B
330
1F
100
AcDbEntity
  8
0
  6
Continuous
 62
     7
100
AcDbLine
 10
36.1388486726
 20
29.5225618461
 30
0.0
 11
35.9955676093
 21
29.9797206092
 31
0.0
  0
LINE
  5
21C
330
1F
100
AcDbEntity
  8
0
  6
Continuous
 62
     7
100
AcDbLine
 10
35.9955676093
 20
29.9797206092
 30
0.0
 11
35.9582428912
 21
30.3263062268
 31
0.0
  0
LINE
  5
21D
330
1F
100
AcDbEntity
  8
0
  6
Continuous
 62
     7
100
AcDbLine
 10
35.9582428912
 20
30.3263062268
 30
0.0
 11
35.9582428912
 21
32.2149921858
 31
0.0
  0
LINE
  5
21E
330
1F
100
AcDbEntity
  8
0
  6
Continuous
 62
     7
100
AcDbLine
 10
35.9582428912
 20
32.2149921858
 30
0.0
 11
36.0383639845
 21
32.6868313814
 31
0.0
  0
LINE
  5
21F
330
1F
100
AcDbEntity
  8
0
  6
Continuous
 62
     7
100
AcDbLine
 10
36.0383639845
 20
32.6868313814
 30
0.0
 11
36.2201907733
 21
33.1303211537
 31
0.0
  0
LINE
  5
220
330
1F
100
AcDbEntity
  8
0
  6
Continuous
 62
     7
100
AcDbLine
 10
36.2201907733
 20
33.1303211537
 30
0.0
 11
36.4793891419
 21
33.5337042005
 31
0.0
  0
LINE
  5
221
330
1F
100
AcDbEntity
  8
0
  6
Continuous
 62
     7
100
AcDbLine
 10
36.4793891419
 20
33.5337042005
 30
0.0
 11
36.7520381135
 21
33.8436408916
 31
0.0
  0
LINE
  5
222
330
1F
100
AcDbEntity
  8
0
  6
Continuous
 62
     7
100
AcDbLine
 10
36.7520381135
 20
33.8436408916
 30
0.0
 11
37.1167540356
 21
34.1549891334
 31
0.0
  0
LINE
  5
223
330
1F
100
AcDbEntity
  8
0
  6
Continuous
 62
     7
100
AcDbLine
 10
37.1167540356
 20
34.1549891334
 30
0.0
 11
37.5309900418
 21
34.3960936749
 31
0.0
  0
LINE
  5
224
330
1F
100
AcDbEntity
  8
0
  6
Continuous
 62
     7
100
AcDbLine
 10
37.5309900418
 20
34.3960936749
 30
0.0
 11
37.9868582462
 21
34.542991216
 31
0.0
  0
LINE
  5
225
330
1F
100
AcDbEntity
  8
0
  6
Continuous
 62
     7
100
AcDbLine
 10
37.9868582462
 20
34.542991216
 30
0.0
 11
38.3396291344
 21
34.5690055509
 31
0.0
  0
LINE
  5
226
330
1F
100
AcDbEntity
  8
0
  6
Continuous
 62
     7
100
AcDbLine
 10
38.3396291344
 20
34.5690055509
 30
0.0
 11
39.4071468009
 21
34.5690055509
 31
0.0
  0
LINE
  5
227
330
1F
100
AcDbEntity
  8
0
  6
Continuous
 62
     7
100
AcDbLine
 10
39.4071468009
 20
34.5690055509
 30
0.0
 11
39.7101239583
 21
34.9409501789
 31
0.0
  0
LINE
  5
228
330
1F
100
AcDbEntity
  8
0
  6
Continuous
 62
     7
100
AcDbLine
 10
39.7101239583
 20
34.9409501789
 30
0.0
 11
40.0509584747
 21
35.2787775203
 31
0.0
  0
LINE
  5
229
330
1F
100
AcDbEntity
  8
0
  6
Continuous
 62
     7
100
AcDbLine
 10
40.0509584747
 20
35.2787775203
 30
0.0
 11
40.4214517578
 21
35.5838022932
 31
0.0
  0
LINE
  5
22A
330
1F
100
AcDbEntity
  8
0
  6
Continuous
 62
     7
100
AcDbLine
 10
40.4214517578
 20
35.5838022932
 30
0.0
 11
40.8183494729
 21
35.8535650976
 31
0.0
  0
LINE
  5
22B
330
1F
100
AcDbEntity
  8
0
  6
Continuous
 62
     7
100
AcDbLine
 10
40.8183494729
 20
35.8535650976
 30
0.0
 11
41.2388399585
 21
36.0848178319
 31
0.0
  0
LINE
  5
22C
330
1F
100
AcDbEntity
  8
0
  6
Continuous
 62
     7
100
AcDbLine
 10
41.2388399585
 20
36.0848178319
 30
0.0
 11
41.6797181179
 21
36.274309708
 31
0.0
  0
LINE
  5
22D
330
1F
100
AcDbEntity
  8
0
  6
Continuous
 62
     7
100
AcDbLine
 10
41.6797181179
 20
36.274309708
 30
0.0
 11
42.1371387251
 21
36.4193640417
 31
0.0
  0
LINE
  5
22E
330
1F
100
AcDbEntity
  8
0
  6
Continuous
 62
     7
100
AcDbLine
 10
42.1371387251
 20
36.4193640417
 30
0.0
 11
42.6066848182
 21
36.5183540463
 31
0.0
  0
LINE
  5
22F
330
1F
100
AcDbEntity
  8
0
  6
Continuous
 62
     7
100
AcDbLine
 10
42.6066848182
 20
36.5183540463
 30
0.0
 11
43.0836674234
 21
36.5710053672
 31
0.0
  0
LINE
  5
230
330
1F
100
AcDbEntity
  8
0
  6
Continuous
 62
     7
100
AcDbLine
 10
43.0836674234
 20
36.5710053672
 30
0.0
 11
43.4034961748
 21
36.5808662929
 31
0.0
  0
LINE
  5
231
330
1F
100
AcDbEntity
  8
0
  6
Continuous
 62
     7
100
AcDbLine
 10
41.6742016822
 20
32.1184087309
 30
0.0
 11
41.6742016822
 21
29.7408442098
 31
0.0
  0
LINE
  5
232
330
1F
100
AcDbEntity
  8
0
  6
Continuous
 62
     7
100
AcDbLine
 10
41.6742016822
 20
29.7408442098
 30
0.0
 11
42.483063922
 21
29.7408442098
 31
0.0
  0
LINE
  5
233
330
1F
100
AcDbEntity
  8
0
  6
Continuous
 62
     7
100
AcDbLine
 10
42.483063922
 20
29.7408442098
 30
0.0
 11
42.483063922
 21
32.1184087309
 31
0.0
  0
LINE
  5
234
330
1F
100
AcDbEntity
  8
0
  6
Continuous
 62
     7
100
AcDbLine
 10
42.483063922
 20
32.1184087309
 30
0.0
 11
41.6742016822
 21
32.1184087309
 31
0.0
  0
LINE
  5
235
330
1F
100
AcDbEntity
  8
0
  6
Continuous
 62
     7
100
AcDbLine
 10
42.0957903219
 20
32.3733230868
 30
0.0
 11
41.9068603115
 21
32.4029056922
 31
0.0
  0
LINE
  5
236
330
1F
100
AcDbEntity
  8
0
  6
Continuous
 62
     7
100
AcDbLine
 10
41.9068603115
 20
32.4029056922
 30
0.0
 11
41.7384149131
 21
32.4929217047
 31
0.0
  0
LINE
  5
237
330
1F
100
AcDbEntity
  8
0
  6
Continuous
 62
     7
100
AcDbLine
 10
41.7384149131
 20
32.4929217047
 30
0.0
 11
41.6193543682
 21
32.6414579891
 31
0.0
  0
LINE
  5
238
330
1F
100
AcDbEntity
  8
0
  6
Continuous
 62
     7
100
AcDbLine
 10
41.6193543682
 20
32.6414579891
 30
0.0
 11
41.5859623781
 21
32.7900094683
 31
0.0
  0
LINE
  5
239
330
1F
100
AcDbEntity
  8
0
  6
Continuous
 62
     7
100
AcDbLine
 10
41.5859623781
 20
32.7900094683
 30
0.0
 11
41.6374308929
 21
32.97257739
 31
0.0
  0
LINE
  5
23A
330
1F
100
AcDbEntity
  8
0
  6
Continuous
 62
     7
100
AcDbLine
 10
41.6374308929
 20
32.97257739
 30
0.0
 11
41.7693741995
 21
33.1100286925
 31
0.0
  0
LINE
  5
23B
330
1F
100
AcDbEntity
  8
0
  6
Continuous
 62
     7
100
AcDbLine
 10
41.7693741995
 20
33.1100286925
 30
0.0
 11
41.9438590225
 21
33.1878559932
 31
0.0
  0
LINE
  5
23C
330
1F
100
AcDbEntity
  8
0
  6
Continuous
 62
     7
100
AcDbLine
 10
41.9438590225
 20
33.1878559932
 30
0.0
 11
42.0957903219
 21
33.2066958497
 31
0.0
  0
LINE
  5
23D
330
1F
100
AcDbEntity
  8
0
  6
Continuous
 62
     7
100
AcDbLine
 10
42.0957903219
 20
33.2066958497
 30
0.0
 11
42.2847203335
 21
33.1771132459
 31
0.0
  0
LINE
  5
23E
330
1F
100
AcDbEntity
  8
0
  6
Continuous
 62
     7
100
AcDbLine
 10
42.2847203335
 20
33.1771132459
 30
0.0
 11
42.453165794
 21
33.0870973373
 31
0.0
  0
LINE
  5
23F
330
1F
100
AcDbEntity
  8
0
  6
Continuous
 62
     7
100
AcDbLine
 10
42.453165794
 20
33.0870973373
 30
0.0
 11
42.5722265971
 21
32.9385612514
 31
0.0
  0
LINE
  5
240
330
1F
100
AcDbEntity
  8
0
  6
Continuous
 62
     7
100
AcDbLine
 10
42.5722265971
 20
32.9385612514
 30
0.0
 11
42.6056188417
 21
32.7900094683
 31
0.0
  0
LINE
  5
241
330
1F
100
AcDbEntity
  8
0
  6
Continuous
 62
     7
100
AcDbLine
 10
42.6056188417
 20
32.7900094683
 30
0.0
 11
42.5541502754
 21
32.6074415662
 31
0.0
  0
LINE
  5
242
330
1F
100
AcDbEntity
  8
0
  6
Continuous
 62
     7
100
AcDbLine
 10
42.5541502754
 20
32.6074415662
 30
0.0
 11
42.4222068984
 21
32.4699903293
 31
0.0
  0
LINE
  5
243
330
1F
100
AcDbEntity
  8
0
  6
Continuous
 62
     7
100
AcDbLine
 10
42.4222068984
 20
32.4699903293
 30
0.0
 11
42.2477220715
 21
32.392163028
 31
0.0
  0
LINE
  5
244
330
1F
100
AcDbEntity
  8
0
  6
Continuous
 62
     7
100
AcDbLine
 10
42.2477220715
 20
32.392163028
 30
0.0
 11
42.0957903219
 21
32.3733230868
 31
0.0
  0
LINE
  5
245
330
1F
100
AcDbEntity
  8
0
  6
Continuous
 62
     7
100
AcDbLine
 10
37.2700280857
 20
33.0224737512
 30
0.0
 11
38.0316913127
 21
29.7378028856
 31
0.0
  0
LINE
  5
246
330
1F
100
AcDbEntity
  8
0
  6
Continuous
 62
     7
100
AcDbLine
 10
38.0316913127
 20
29.7378028856
 30
0.0
 11
38.8733876796
 21
29.7378028856
 31
0.0
  0
LINE
  5
247
330
1F
100
AcDbEntity
  8
0
  6
Continuous
 62
     7
100
AcDbLine
 10
38.8733876796
 20
29.7378028856
 30
0.0
 11
39.2497562563
 21
31.6401744195
 31
0.0
  0
LINE
  5
248
330
1F
100
AcDbEntity
  8
0
  6
Continuous
 62
     7
100
AcDbLine
 10
39.2497562563
 20
31.6401744195
 30
0.0
 11
39.612438682
 21
29.7378028856
 31
0.0
  0
LINE
  5
249
330
1F
100
AcDbEntity
  8
0
  6
Continuous
 62
     7
100
AcDbLine
 10
39.612438682
 20
29.7378028856
 30
0.0
 11
40.4746650434
 21
29.7378028856
 31
0.0
  0
LINE
  5
24A
330
1F
100
AcDbEntity
  8
0
  6
Continuous
 62
     7
100
AcDbLine
 10
40.4746650434
 20
29.7378028856
 30
0.0
 11
41.2410877717
 21
33.0224737512
 31
0.0
  0
LINE
  5
24B
330
1F
100
AcDbEntity
  8
0
  6
Continuous
 62
     7
100
AcDbLine
 10
41.2410877717
 20
33.0224737512
 30
0.0
 11
40.3241175743
 21
33.0224737512
 31
0.0
  0
LINE
  5
24C
330
1F
100
AcDbEntity
  8
0
  6
Continuous
 62
     7
100
AcDbLine
 10
40.3241175743
 20
33.0224737512
 30
0.0
 11
40.0572378217
 21
31.2227477738
 31
0.0
  0
LINE
  5
24D
330
1F
100
AcDbEntity
  8
0
  6
Continuous
 62
     7
100
AcDbLine
 10
40.0572378217
 20
31.2227477738
 30
0.0
 11
39.6822947663
 21
33.0224737512
 31
0.0
  0
LINE
  5
24E
330
1F
100
AcDbEntity
  8
0
  6
Continuous
 62
     7
100
AcDbLine
 10
39.6822947663
 20
33.0224737512
 30
0.0
 11
38.8514495251
 21
33.0224737512
 31
0.0
  0
LINE
  5
24F
330
1F
100
AcDbEntity
  8
0
  6
Continuous
 62
     7
100
AcDbLine
 10
38.8514495251
 20
33.0224737512
 30
0.0
 11
38.4764904524
 21
31.2022183553
 31
0.0
  0
LINE
  5
250
330
1F
100
AcDbEntity
  8
0
  6
Continuous
 62
     7
100
AcDbLine
 10
38.4764904524
 20
31.2022183553
 30
0.0
 11
38.1980180492
 21
33.0224737512
 31
0.0
  0
LINE
  5
251
330
1F
100
AcDbEntity
  8
0
  6
Continuous
 62
     7
100
AcDbLine
 10
38.1980180492
 20
33.0224737512
 30
0.0
 11
37.2700280857
 21
33.0224737512
 31
0.0
  0
LINE
  5
252
330
1F
100
AcDbEntity
  8
0
  6
Continuous
 62
     7
100
AcDbLine
 10
49.9098883709
 20
33.5155338941
 30
0.0
 11
50.2024942996
 21
33.1360990062
 31
0.0
  0
LINE
  5
253
330
1F
100
AcDbEntity
  8
0
  6
Continuous
 62
     7
100
AcDbLine
 10
50.2024942996
 20
33.1360990062
 30
0.0
 11
50.3987356713
 21
32.6994142099
 31
0.0
  0
LINE
  5
254
330
1F
100
AcDbEntity
  8
0
  6
Continuous
 62
     7
100
AcDbLine
 10
50.3987356713
 20
32.6994142099
 30
0.0
 11
50.468738897
 21
32.2262570679
 31
0.0
  0
LINE
  5
255
330
1F
100
AcDbEntity
  8
0
  6
Continuous
 62
     7
100
AcDbLine
 10
50.468738897
 20
32.2262570679
 30
0.0
 11
50.468738897
 21
30.387933848
 31
0.0
  0
LINE
  5
256
330
1F
100
AcDbEntity
  8
0
  6
Continuous
 62
     7
100
AcDbLine
 10
50.468738897
 20
30.387933848
 30
0.0
 11
50.4094969751
 21
29.912833479
 31
0.0
  0
LINE
  5
257
330
1F
100
AcDbEntity
  8
0
  6
Continuous
 62
     7
100
AcDbLine
 10
50.4094969751
 20
29.912833479
 30
0.0
 11
50.2262444575
 21
29.4708260662
 31
0.0
  0
LINE
  5
258
330
1F
100
AcDbEntity
  8
0
  6
Continuous
 62
     7
100
AcDbLine
 10
50.2262444575
 20
29.4708260662
 30
0.0
 11
49.9288332703
 21
29.0958139691
 31
0.0
  0
LINE
  5
259
330
1F
100
AcDbEntity
  8
0
  6
Continuous
 62
     7
100
AcDbLine
 10
49.9288332703
 20
29.0958139691
 30
0.0
 11
49.890279722
 21
29.0594393399
 31
0.0
  0
LINE
  5
25A
330
1F
100
AcDbEntity
  8
0
  6
Continuous
 62
     7
100
AcDbLine
 10
49.890279722
 20
29.0594393399
 30
0.0
 11
49.515378149
 21
28.7603464078
 31
0.0
  0
LINE
  5
25B
330
1F
100
AcDbEntity
  8
0
  6
Continuous
 62
     7
100
AcDbLine
 10
49.515378149
 20
28.7603464078
 30
0.0
 11
49.0868821672
 21
28.5473269932
 31
0.0
  0
LINE
  5
25C
330
1F
100
AcDbEntity
  8
0
  6
Continuous
 62
     7
100
AcDbLine
 10
49.0868821672
 20
28.5473269932
 30
0.0
 11
48.6549267763
 21
28.4809801649
 31
0.0
  0
LINE
  5
25D
330
1F
100
AcDbEntity
  8
0
  6
Continuous
 62
     7
100
AcDbLine
 10
48.6549267763
 20
28.4809801649
 30
0.0
 11
42.8017062908
 21
28.4809801649
 31
0.0
  0
LINE
  5
25E
330
1F
100
AcDbEntity
  8
0
  6
Continuous
 62
     7
100
AcDbLine
 10
42.8017062908
 20
28.4809801649
 30
0.0
 11
43.147662263
 21
28.8129814168
 31
0.0
  0
LINE
  5
25F
330
1F
100
AcDbEntity
  8
0
  6
Continuous
 62
     7
100
AcDbLine
 10
43.147662263
 20
28.8129814168
 30
0.0
 11
43.4377439995
 21
29.1948776378
 31
0.0
  0
LINE
  5
260
330
1F
100
AcDbEntity
  8
0
  6
Continuous
 62
     7
100
AcDbLine
 10
43.4377439995
 20
29.1948776378
 30
0.0
 11
43.6584718159
 21
29.6204031604
 31
0.0
  0
LINE
  5
261
330
1F
100
AcDbEntity
  8
0
  6
Continuous
 62
     7
100
AcDbLine
 10
43.6584718159
 20
29.6204031604
 30
0.0
 11
43.7873114161
 21
30.0818108305
 31
0.0
  0
LINE
  5
262
330
1F
100
AcDbEntity
  8
0
  6
Continuous
 62
     7
100
AcDbLine
 10
43.7873114161
 20
30.0818108305
 30
0.0
 11
43.8115586221
 21
30.387933848
 31
0.0
  0
LINE
  5
263
330
1F
100
AcDbEntity
  8
0
  6
Continuous
 62
     7
100
AcDbLine
 10
43.8115586221
 20
30.387933848
 30
0.0
 11
43.8115586221
 21
32.3095943058
 31
0.0
  0
LINE
  5
264
330
1F
100
AcDbEntity
  8
0
  6
Continuous
 62
     7
100
AcDbLine
 10
43.8115586221
 20
32.3095943058
 30
0.0
 11
43.9133401255
 21
32.7756573297
 31
0.0
  0
LINE
  5
265
330
1F
100
AcDbEntity
  8
0
  6
Continuous
 62
     7
100
AcDbLine
 10
43.9133401255
 20
32.7756573297
 30
0.0
 11
44.1512299693
 21
33.1913276927
 31
0.0
  0
LINE
  5
266
330
1F
100
AcDbEntity
  8
0
  6
Continuous
 62
     7
100
AcDbLine
 10
44.1512299693
 20
33.1913276927
 30
0.0
 11
44.4439414855
 21
33.5302406688
 31
0.0
  0
LINE
  5
267
330
1F
100
AcDbEntity
  8
0
  6
Continuous
 62
     7
100
AcDbLine
 10
44.4439414855
 20
33.5302406688
 30
0.0
 11
44.8147593851
 21
33.8336931987
 31
0.0
  0
LINE
  5
268
330
1F
100
AcDbEntity
  8
0
  6
Continuous
 62
     7
100
AcDbLine
 10
44.8147593851
 20
33.8336931987
 30
0.0
 11
45.2503754321
 21
34.030859864
 31
0.0
  0
LINE
  5
269
330
1F
100
AcDbEntity
  8
0
  6
Continuous
 62
     7
100
AcDbLine
 10
45.2503754321
 20
34.030859864
 30
0.0
 11
45.6253707428
 21
34.0792862944
 31
0.0
  0
LINE
  5
26A
330
1F
100
AcDbEntity
  8
0
  6
Continuous
 62
     7
100
AcDbLine
 10
45.6253707428
 20
34.0792862944
 30
0.0
 11
48.6353181274
 21
34.0792862944
 31
0.0
  0
LINE
  5
26B
330
1F
100
AcDbEntity
  8
0
  6
Continuous
 62
     7
100
AcDbLine
 10
48.6353181274
 20
34.0792862944
 30
0.0
 11
49.1083082436
 21
34.007108377
 31
0.0
  0
LINE
  5
26C
330
1F
100
AcDbEntity
  8
0
  6
Continuous
 62
     7
100
AcDbLine
 10
49.1083082436
 20
34.007108377
 30
0.0
 11
49.5421148853
 21
33.8049940778
 31
0.0
  0
LINE
  5
26D
330
1F
100
AcDbEntity
  8
0
  6
Continuous
 62
     7
100
AcDbLine
 10
49.5421148853
 20
33.8049940778
 30
0.0
 11
49.9098883709
 21
33.5155338941
 31
0.0
  0
LINE
  5
26E
330
1F
100
AcDbEntity
  8
0
  6
Continuous
 62
     7
100
AcDbLine
 10
44.9586724557
 20
29.7555509845
 30
0.0
 11
45.865578324
 21
29.7555509845
 31
0.0
  0
LINE
  5
26F
330
1F
100
AcDbEntity
  8
0
  6
Continuous
 62
     7
100
AcDbLine
 10
45.865578324
 20
29.7555509845
 30
0.0
 11
45.865578324
 21
30.7457940907
 31
0.0
  0
LINE
  5
270
330
1F
100
AcDbEntity
  8
0
  6
Continuous
 62
     7
100
AcDbLine
 10
45.865578324
 20
30.7457940907
 30
0.0
 11
47.5911507566
 21
30.7457940907
 31
0.0
  0
LINE
  5
271
330
1F
100
AcDbEntity
  8
0
  6
Continuous
 62
     7
100
AcDbLine
 10
47.5911507566
 20
30.7457940907
 30
0.0
 11
47.5911507566
 21
31.4860258674
 31
0.0
  0
LINE
  5
272
330
1F
100
AcDbEntity
  8
0
  6
Continuous
 62
     7
100
AcDbLine
 10
47.5911507566
 20
31.4860258674
 30
0.0
 11
45.8606758738
 21
31.4860258674
 31
0.0
  0
LINE
  5
273
330
1F
100
AcDbEntity
  8
0
  6
Continuous
 62
     7
100
AcDbLine
 10
45.8606758738
 20
31.4860258674
 30
0.0
 11
45.8606758738
 21
32.2605722995
 31
0.0
  0
LINE
  5
274
330
1F
100
AcDbEntity
  8
0
  6
Continuous
 62
     7
100
AcDbLine
 10
45.8606758738
 20
32.2605722995
 30
0.0
 11
47.8166515631
 21
32.2605722995
 31
0.0
  0
LINE
  5
275
330
1F
100
AcDbEntity
  8
0
  6
Continuous
 62
     7
100
AcDbLine
 10
47.8166515631
 20
32.2605722995
 30
0.0
 11
47.8166515631
 21
33.0302170495
 31
0.0
  0
LINE
  5
276
330
1F
100
AcDbEntity
  8
0
  6
Continuous
 62
     7
100
AcDbLine
 10
47.8166515631
 20
33.0302170495
 30
0.0
 11
44.9537700054
 21
33.0302170495
 31
0.0
  0
LINE
  5
277
330
1F
100
AcDbEntity
  8
0
  6
Continuous
 62
     7
100
AcDbLine
 10
44.9537700054
 20
33.0302170495
 30
0.0
 11
44.9586724557
 21
29.7555509845
 31
0.0
  0
LINE
  5
278
330
1F
100
AcDbEntity
  8
0
  6
Continuous
 62
     7
100
AcDbLine
 10
48.9833398648
 20
32.3896365518
 30
0.0
 11
49.1515052279
 21
32.4791073992
 31
0.0
  0
LINE
  5
279
330
1F
100
AcDbEntity
  8
0
  6
Continuous
 62
     7
100
AcDbLine
 10
49.1515052279
 20
32.4791073992
 30
0.0
 11
49.2655909544
 21
32.6316554235
 31
0.0
  0
LINE
  5
27A
330
1F
100
AcDbEntity
  8
0
  6
Continuous
 62
     7
100
AcDbLine
 10
49.2655909544
 20
32.6316554235
 30
0.0
 11
49.3014176426
 21
32.8184616119
 31
0.0
  0
LINE
  5
27B
330
1F
100
AcDbEntity
  8
0
  6
Continuous
 62
     7
100
AcDbLine
 10
49.3014176426
 20
32.8184616119
 30
0.0
 11
49.2398046952
 21
32.9976749899
 31
0.0
  0
LINE
  5
27C
330
1F
100
AcDbEntity
  8
0
  6
Continuous
 62
     7
100
AcDbLine
 10
49.2398046952
 20
32.9976749899
 30
0.0
 11
49.2029047316
 21
33.0416589805
 31
0.0
  0
LINE
  5
27D
330
1F
100
AcDbEntity
  8
0
  6
Continuous
 62
     7
100
AcDbLine
 10
49.2029047316
 20
33.0416589805
 30
0.0
 11
49.0477773122
 21
33.1533347047
 31
0.0
  0
LINE
  5
27E
330
1F
100
AcDbEntity
  8
0
  6
Continuous
 62
     7
100
AcDbLine
 10
49.0477773122
 20
33.1533347047
 30
0.0
 11
48.8650213952
 21
33.2095900667
 31
0.0
  0
LINE
  5
27F
330
1F
100
AcDbEntity
  8
0
  6
Continuous
 62
     7
100
AcDbLine
 10
48.8650213952
 20
33.2095900667
 30
0.0
 11
48.6738289751
 21
33.206265395
 31
0.0
  0
LINE
  5
280
330
1F
100
AcDbEntity
  8
0
  6
Continuous
 62
     7
100
AcDbLine
 10
48.6738289751
 20
33.206265395
 30
0.0
 11
48.4941032068
 21
33.1413816825
 31
0.0
  0
LINE
  5
281
330
1F
100
AcDbEntity
  8
0
  6
Continuous
 62
     7
100
AcDbLine
 10
48.4941032068
 20
33.1413816825
 30
0.0
 11
48.3577132806
 21
33.0276556009
 31
0.0
  0
LINE
  5
282
330
1F
100
AcDbEntity
  8
0
  6
Continuous
 62
     7
100
AcDbLine
 10
48.3577132806
 20
33.0276556009
 30
0.0
 11
48.2676883981
 21
32.85987264
 31
0.0
  0
LINE
  5
283
330
1F
100
AcDbEntity
  8
0
  6
Continuous
 62
     7
100
AcDbLine
 10
48.2676883981
 20
32.85987264
 30
0.0
 11
48.276254617
 21
32.6708916731
 31
0.0
  0
LINE
  5
284
330
1F
100
AcDbEntity
  8
0
  6
Continuous
 62
     7
100
AcDbLine
 10
48.276254617
 20
32.6708916731
 30
0.0
 11
48.3766715339
 21
32.5176675065
 31
0.0
  0
LINE
  5
285
330
1F
100
AcDbEntity
  8
0
  6
Continuous
 62
     7
100
AcDbLine
 10
48.3766715339
 20
32.5176675065
 30
0.0
 11
48.535140774
 21
32.4112537111
 31
0.0
  0
LINE
  5
286
330
1F
100
AcDbEntity
  8
0
  6
Continuous
 62
     7
100
AcDbLine
 10
48.535140774
 20
32.4112537111
 30
0.0
 11
48.7206540562
 21
32.3648247896
 31
0.0
  0
LINE
  5
287
330
1F
100
AcDbEntity
  8
0
  6
Continuous
 62
     7
100
AcDbLine
 10
48.7206540562
 20
32.3648247896
 30
0.0
 11
48.9119122106
 21
32.3733783457
 31
0.0
  0
LINE
  5
288
330
1F
100
AcDbEntity
  8
0
  6
Continuous
 62
     7
100
AcDbLine
 10
48.9119122106
 20
32.3733783457
 30
0.0
 11
48.9833398648
 21
32.3896365518
 31
0.0
  0
LINE
  5
289
330
1F
100
AcDbEntity
  8
0
  6
Continuous
 62
     7
100
AcDbLine
 10
49.1700001306
 20
30.9321563305
 30
0.0
 11
49.1700001306
 21
32.1384548174
 31
0.0
  0
LINE
  5
28A
330
1F
100
AcDbEntity
  8
0
  6
Continuous
 62
     7
100
AcDbLine
 10
49.1700001306
 20
32.1384548174
 30
0.0
 11
48.7540351947
 21
32.1384548174
 31
0.0
  0
LINE
  5
28B
330
1F
100
AcDbEntity
  8
0
  6
Continuous
 62
     7
100
AcDbLine
 10
48.7540351947
 20
32.1384548174
 30
0.0
 11
48.3380700669
 21
32.1384548174
 31
0.0
  0
LINE
  5
28C
330
1F
100
AcDbEntity
  8
0
  6
Continuous
 62
     7
100
AcDbLine
 10
48.3380700669
 20
32.1384548174
 30
0.0
 11
48.3380700669
 21
30.9321563305
 31
0.0
  0
LINE
  5
28D
330
1F
100
AcDbEntity
  8
0
  6
Continuous
 62
     7
100
AcDbLine
 10
48.3380700669
 20
30.9321563305
 30
0.0
 11
48.3380700669
 21
29.7258578437
 31
0.0
  0
LINE
  5
28E
330
1F
100
AcDbEntity
  8
0
  6
Continuous
 62
     7
100
AcDbLine
 10
48.3380700669
 20
29.7258578437
 30
0.0
 11
48.7540351947
 21
29.7258578437
 31
0.0
  0
LINE
  5
28F
330
1F
100
AcDbEntity
  8
0
  6
Continuous
 62
     7
100
AcDbLine
 10
48.7540351947
 20
29.7258578437
 30
0.0
 11
49.1700001306
 21
29.7258578437
 31
0.0
  0
LINE
  5
290
330
1F
100
AcDbEntity
  8
0
  6
Continuous
 62
     7
100
AcDbLine
 10
49.1700001306
 20
29.7258578437
 30
0.0
 11
49.1700001306
 21
30.9321563305
 31
0.0
  0
LINE
  5
291
330
1F
100
AcDbEntity
  8
0
  6
Continuous
 62
     7
100
AcDbLine
 10
39.4071468009
 20
34.5690055509
 30
0.0
 11
47.5777647439
 21
34.5963780449
 31
0.0
  0
LINE
  5
292
330
1F
100
AcDbEntity
  8
0
  6
Continuous
 62
     7
100
AcDbLine
 10
39.516636201
 20
27.9996649717
 30
0.0
 11
47.4272172748
 21
28.0133511228
 31
0.0
  0
ENDSEC
  0
SECTION
  2
OBJECTS
  0
DICTIONARY
  5
C
330
0
100
AcDbDictionary
281
     1
  3
ACAD_GROUP
350
D
  3
ACAD_LAYOUT
350
1A
  3
ACAD_MLINESTYLE
350
17
  3
ACAD_PLOTSETTINGS
350
19
  3
ACAD_PLOTSTYLENAME
350
E
  3
ACAD_SCALELIST
350
47
  0
DICTIONARY
  5
D
102
{ACAD_REACTORS
330
C
102
}
330
C
100
AcDbDictionary
281
     1
  0
DICTIONARY
  5
1A
102
{ACAD_REACTORS
330
C
102
}
330
C
100
AcDbDictionary
281
     1
  3
Layout1
350
1E
  3
Layout2
350
26
  3
Model
350
22
  0
DICTIONARY
  5
17
102
{ACAD_REACTORS
330
C
102
}
330
C
100
AcDbDictionary
281
     1
  3
Standard
350
18
  0
DICTIONARY
  5
19
102
{ACAD_REACTORS
330
C
102
}
330
C
100
AcDbDictionary
281
     1
  0
ACDBDICTIONARYWDFLT
  5
E
102
{ACAD_REACTORS
330
C
102
}
330
C
100
AcDbDictionary
281
     1
  3
Normal
350
F
100
AcDbDictionaryWithDefault
340
F
  0
DICTIONARY
  5
47
102
{ACAD_REACTORS
330
C
102
}
330
C
100
AcDbDictionary
281
     1
  3
A0
350
48
  3
A1
350
49
  3
A2
350
4A
  3
A3
350
4B
  3
A4
350
4C
  3
A5
350
4D
  3
A6
350
4E
  3
A7
350
4F
  3
A8
350
50
  3
A9
350
51
  3
B0
350
52
  3
B1
350
53
  3
B2
350
54
  3
B3
350
55
  3
B4
350
56
  3
B5
350
57
  3
B6
350
58
  3
B7
350
59
  3
B8
350
5A
  3
B9
350
5B
  3
C0
350
5C
  3
C1
350
5D
  3
C2
350
5E
  3
C3
350
5F
  3
C4
350
60
  3
C5
350
61
  3
C6
350
62
  3
C7
350
63
  3
C8
350
64
  3
C9
350
65
  3
D0
350
66
  3
D1
350
67
  3
D2
350
68
  0
LAYOUT
  5
1E
102
{ACAD_REACTORS
330
1A
102
}
330
1A
100
AcDbPlotSettings
  1

  2
none_device
  4

  6

 40
0.0
 41
0.0
 42
0.0
 43
0.0
 44
0.0
 45
0.0
 46
0.0
 47
0.0
 48
0.0
 49
0.0
140
0.0
141
0.0
142
1.0
143
1.0
 70
   688
 72
     1
 73
     0
 74
     5
  7

 75
    16
147
1.0
148
0.0
149
0.0
100
AcDbLayout
  1
Layout1
 70
     1
 71
     1
 10
0.0
 20
0.0
 11
420.0
 21
297.0
 12
0.0
 22
0.0
 32
0.0
 14
1.0000000000E+20
 24
1.0000000000E+20
 34
1.0000000000E+20
 15
-1.0000000000E+20
 25
-1.0000000000E+20
 35
-1.0000000000E+20
146
0.0
 13
0.0
 23
0.0
 33
0.0
 16
1.0
 26
0.0
 36
0.0
 17
0.0
 27
1.0
 37
0.0
 76
     0
330
1B
  0
LAYOUT
  5
26
102
{ACAD_REACTORS
330
1A
102
}
330
1A
100
AcDbPlotSettings
  1

  2
none_device
  4

  6

 40
0.0
 41
0.0
 42
0.0
 43
0.0
 44
0.0
 45
0.0
 46
0.0
 47
0.0
 48
0.0
 49
0.0
140
0.0
141
0.0
142
1.0
143
1.0
 70
   688
 72
     1
 73
     0
 74
     5
  7

 75
    16
147
1.0
148
0.0
149
0.0
100
AcDbLayout
  1
Layout2
 70
     1
 71
     2
 10
0.0
 20
0.0
 11
0.0
 21
0.0
 12
0.0
 22
0.0
 32
0.0
 14
0.0
 24
0.0
 34
0.0
 15
0.0
 25
0.0
 35
0.0
146
0.0
 13
0.0
 23
0.0
 33
0.0
 16
1.0
 26
0.0
 36
0.0
 17
0.0
 27
1.0
 37
0.0
 76
     0
330
23
  0
LAYOUT
  5
22
102
{ACAD_REACTORS
330
1A
102
}
330
1A
100
AcDbPlotSettings
  1

  2
none_device
  4
ANSI_A_(11.00_x_8.50_Inches)
  6

 40
6.35
 41
19.05
 42
6.35000508
 43
19.05000254
 44
279.4
 45
215.9
 46
-608.8090226985
 47
-436.716387935
 48
0.0
 49
0.0
140
0.0
141
0.0
142
0.661151857
143
1.0
 70
  1696
 72
     0
 73
     0
 74
     0
  7

 75
     0
147
0.0179189148
148
-1300.4909072572
149
0.0
100
AcDbLayout
  1
Model
 70
     1
 71
     0
 10
0.0
 20
0.0
 11
420.0
 21
297.0
 12
0.0
 22
0.0
 32
0.0
 14
35.9582428912
 24
26.0176375503
 34
0.0
 15
52.4294966357
 25
36.5808662929
 35
0.0
146
0.0
 13
0.0
 23
0.0
 33
0.0
 16
1.0
 26
0.0
 36
0.0
 17
0.0
 27
1.0
 37
0.0
 76
     0
330
1F
331
29
  0
MLINESTYLE
  5
18
102
{ACAD_REACTORS
330
17
102
}
330
17
100
AcDbMlineStyle
  2
Standard
 70
     0
  3

 62
   256
 51
90.0
 52
90.0
 71
     2
 49
0.5
 62
   256
  6
BYLAYER
 49
-0.5
 62
   256
  6
BYLAYER
  0
ACDBPLACEHOLDER
  5
F
102
{ACAD_REACTORS
330
E
102
}
330
E
  0
SCALE
  5
48
102
{ACAD_REACTORS
330
47
102
}
330
47
100
AcDbScale
 70
     0
300
1:1
140
1.0
141
1.0
290
     1
  0
SCALE
  5
49
102
{ACAD_REACTORS
330
47
102
}
330
47
100
AcDbScale
 70
     0
300
1:2
140
1.0
141
2.0
290
     0
  0
SCALE
  5
4A
102
{ACAD_REACTORS
330
47
102
}
330
47
100
AcDbScale
 70
     0
300
1:4
140
1.0
141
4.0
290
     0
  0
SCALE
  5
4B
102
{ACAD_REACTORS
330
47
102
}
330
47
100
AcDbScale
 70
     0
300
1:5
140
1.0
141
5.0
290
     0
  0
SCALE
  5
4C
102
{ACAD_REACTORS
330
47
102
}
330
47
100
AcDbScale
 70
     0
300
1:8
140
1.0
141
8.0
290
     0
  0
SCALE
  5
4D
102
{ACAD_REACTORS
330
47
102
}
330
47
100
AcDbScale
 70
     0
300
1:10
140
1.0
141
10.0
290
     0
  0
SCALE
  5
4E
102
{ACAD_REACTORS
330
47
102
}
330
47
100
AcDbScale
 70
     0
300
1:16
140
1.0
141
16.0
290
     0
  0
SCALE
  5
4F
102
{ACAD_REACTORS
330
47
102
}
330
47
100
AcDbScale
 70
     0
300
1:20
140
1.0
141
20.0
290
     0
  0
SCALE
  5
50
102
{ACAD_REACTORS
330
47
102
}
330
47
100
AcDbScale
 70
     0
300
1:30
140
1.0
141
30.0
290
     0
  0
SCALE
  5
51
102
{ACAD_REACTORS
330
47
102
}
330
47
100
AcDbScale
 70
     0
300
1:40
140
1.0
141
40.0
290
     0
  0
SCALE
  5
52
102
{ACAD_REACTORS
330
47
102
}
330
47
100
AcDbScale
 70
     0
300
1:50
140
1.0
141
50.0
290
     0
  0
SCALE
  5
53
102
{ACAD_REACTORS
330
47
102
}
330
47
100
AcDbScale
 70
     0
300
1:100
140
1.0
141
100.0
290
     0
  0
SCALE
  5
54
102
{ACAD_REACTORS
330
47
102
}
330
47
100
AcDbScale
 70
     0
300
2:1
140
2.0
141
1.0
290
     0
  0
SCALE
  5
55
102
{ACAD_REACTORS
330
47
102
}
330
47
100
AcDbScale
 70
     0
300
4:1
140
4.0
141
1.0
290
     0
  0
SCALE
  5
56
102
{ACAD_REACTORS
330
47
102
}
330
47
100
AcDbScale
 70
     0
300
8:1
140
8.0
141
1.0
290
     0
  0
SCALE
  5
57
102
{ACAD_REACTORS
330
47
102
}
330
47
100
AcDbScale
 70
     0
300
10:1
140
10.0
141
1.0
290
     0
  0
SCALE
  5
58
102
{ACAD_REACTORS
330
47
102
}
330
47
100
AcDbScale
 70
     0
300
100:1
140
100.0
141
1.0
290
     0
  0
SCALE
  5
59
102
{ACAD_REACTORS
330
47
102
}
330
47
100
AcDbScale
 70
     0
300
1/128" = 1'-0"
140
0.0078125
141
12.0
290
     0
  0
SCALE
  5
5A
102
{ACAD_REACTORS
330
47
102
}
330
47
100
AcDbScale
 70
     0
300
1/64" = 1'-0"
140
0.015625
141
12.0
290
     0
  0
SCALE
  5
5B
102
{ACAD_REACTORS
330
47
102
}
330
47
100
AcDbScale
 70
     0
300
1/32" = 1'-0"
140
0.03125
141
12.0
290
     0
  0
SCALE
  5
5C
102
{ACAD_REACTORS
330
47
102
}
330
47
100
AcDbScale
 70
     0
300
1/16" = 1'-0"
140
0.0625
141
12.0
290
     0
  0
SCALE
  5
5D
102
{ACAD_REACTORS
330
47
102
}
330
47
100
AcDbScale
 70
     0
300
3/32" = 1'-0"
140
0.09375
141
12.0
290
     0
  0
SCALE
  5
5E
102
{ACAD_REACTORS
330
47
102
}
330
47
100
AcDbScale
 70
     0
300
1/8" = 1'-0"
140
0.125
141
12.0
290
     0
  0
SCALE
  5
5F
102
{ACAD_REACTORS
330
47
102
}
330
47
100
AcDbScale
 70
     0
300
3/16" = 1'-0"
140
0.1875
141
12.0
290
     0
  0
SCALE
  5
60
102
{ACAD_REACTORS
330
47
102
}
330
47
100
AcDbScale
 70
     0
300
1/4" = 1'-0"
140
0.25
141
12.0
290
     0
  0
SCALE
  5
61
102
{ACAD_REACTORS
330
47
102
}
330
47
100
AcDbScale
 70
     0
300
3/8" = 1'-0"
140
0.375
141
12.0
290
     0
  0
SCALE
  5
62
102
{ACAD_REACTORS
330
47
102
}
330
47
100
AcDbScale
 70
     0
300
1/2" = 1'-0"
140
0.5
141
12.0
290
     0
  0
SCALE
  5
63
102
{ACAD_REACTORS
330
47
102
}
330
47
100
AcDbScale
 70
     0
300
3/4" = 1'-0"
140
0.75
141
12.0
290
     0
  0
SCALE
  5
64
102
{ACAD_REACTORS
330
47
102
}
330
47
100
AcDbScale
 70
     0
300
1" = 1'-0"
140
1.0
141
12.0
290
     0
  0
SCALE
  5
65
102
{ACAD_REACTORS
330
47
102
}
330
47
100
AcDbScale
 70
     0
300
1-1/2" = 1'-0"
140
1.5
141
12.0
290
     0
  0
SCALE
  5
66
102
{ACAD_REACTORS
330
47
102
}
330
47
100
AcDbScale
 70
     0
300
3" = 1'-0"
140
3.0
141
12.0
290
     0
  0
SCALE
  5
67
102
{ACAD_REACTORS
330
47
102
}
330
47
100
AcDbScale
 70
     0
300
6" = 1'-0"
140
6.0
141
12.0
290
     0
  0
SCALE
  5
68
102
{ACAD_REACTORS
330
47
102
}
330
47
100
AcDbScale
 70
     0
300
1'-0" = 1'-0"
140
12.0
141
12.0
290
     0
  0
ENDSEC
  0
EOF
